solid csg.js
facet normal -1 0 0
outer loop
vertex -34.3 -81.4 0
vertex -34.3 -81.4 5
vertex -34.3 -81.4 23.8
endloop
endfacet
facet normal -1 0 0
outer loop
vertex -34.3 -81.4 0
vertex -34.3 -81.4 23.8
vertex -34.3 -80.60000000000001 23.8
endloop
endfacet
facet normal -1 0 0
outer loop
vertex -34.3 -81.4 0
vertex -34.3 -80.60000000000001 23.8
vertex -34.3 -80 23.8
endloop
endfacet
facet normal -1 0 0
outer loop
vertex -34.3 -81.4 0
vertex -34.3 -80 23.8
vertex -34.3 -80 0
endloop
endfacet
facet normal 1 0 0
outer loop
vertex 34.3 -81.4 5
vertex 34.3 -81.4 0
vertex 34.3 -80 0
endloop
endfacet
facet normal 1 0 0
outer loop
vertex 34.3 -81.4 5
vertex 34.3 -80 0
vertex 34.3 -80 23.8
endloop
endfacet
facet normal 1 0 0
outer loop
vertex 34.3 -81.4 5
vertex 34.3 -80 23.8
vertex 34.3 -80.60000000000001 23.8
endloop
endfacet
facet normal 1 0 0
outer loop
vertex 34.3 -81.4 5
vertex 34.3 -80.60000000000001 23.8
vertex 34.3 -81.4 23.8
endloop
endfacet
facet normal 0 0 -1
outer loop
vertex 38.3 80 0
vertex 38.3 -80 0
vertex 34.3 -80 0
endloop
endfacet
facet normal 0 0 -1
outer loop
vertex 38.3 80 0
vertex 34.3 -80 0
vertex -34.3 -80 0
endloop
endfacet
facet normal 0 0 -1
outer loop
vertex 38.3 80 0
vertex -34.3 -80 0
vertex -38.3 -80 0
endloop
endfacet
facet normal 0 0 -1
outer loop
vertex 38.3 80 0
vertex -38.3 -80 0
vertex -38.3 80 0
endloop
endfacet
facet normal 0 0 -1
outer loop
vertex 34.3 -80 0
vertex 34.3 -81.4 0
vertex -34.3 -81.4 0
endloop
endfacet
facet normal 0 0 -1
outer loop
vertex 34.3 -80 0
vertex -34.3 -81.4 0
vertex -34.3 -80 0
endloop
endfacet
facet normal 0 0 -1
outer loop
vertex 3.98617316567635 -81.4007612046749 0
vertex 3.9955557023301966 -81.40168530387697 0
vertex 4.000000000000001 -81.41000000000001 0
endloop
endfacet
facet normal 0 0 -1
outer loop
vertex 3.98617316567635 -81.4007612046749 0
vertex 4.000000000000001 -81.41000000000001 0
vertex 4 -82.3512804270915 0
endloop
endfacet
facet normal 0 0 -1
outer loop
vertex 3.98617316567635 -81.4007612046749 0
vertex 4 -82.3512804270915 0
vertex 3.7315728752538098 -82.57157287525382 0
endloop
endfacet
facet normal 0 0 -1
outer loop
vertex 3.98617316567635 -81.4007612046749 0
vertex 3.7315728752538098 -82.57157287525382 0
vertex -3.7315728752538107 -82.57157287525382 0
endloop
endfacet
facet normal 0 0 -1
outer loop
vertex 3.98617316567635 -81.4007612046749 0
vertex -3.7315728752538107 -82.57157287525382 0
vertex -3.999833684872184 -82.35141691838949 0
endloop
endfacet
facet normal 0 0 -1
outer loop
vertex 3.98617316567635 -81.4007612046749 0
vertex -3.999833684872184 -82.35141691838949 0
vertex -3.999807852804032 -81.41195090322017 0
endloop
endfacet
facet normal 0 0 -1
outer loop
vertex 3.98617316567635 -81.4007612046749 0
vertex -3.999807852804032 -81.41195090322017 0
vertex -3.9983146961230265 -81.40444429766981 0
endloop
endfacet
facet normal 0 0 -1
outer loop
vertex 3.98617316567635 -81.4007612046749 0
vertex -3.9983146961230265 -81.40444429766981 0
vertex -3.990000000000001 -81.4 0
endloop
endfacet
facet normal 0 0 -1
outer loop
vertex 3.7315728752538098 -82.57157287525382 0
vertex 3.234121550789818 -83.1777190679216 0
vertex -3.234121550789819 -83.1777190679216 0
endloop
endfacet
facet normal 0 0 -1
outer loop
vertex 3.7315728752538098 -82.57157287525382 0
vertex -3.234121550789819 -83.1777190679216 0
vertex -3.7315728752538107 -82.57157287525382 0
endloop
endfacet
facet normal 0 0 -1
outer loop
vertex 3.234121550789818 -83.1777190679216 0
vertex 2.8644818699548527 -83.86926627053965 0
vertex -2.8644818699548544 -83.86926627053965 0
endloop
endfacet
facet normal 0 0 -1
outer loop
vertex 3.234121550789818 -83.1777190679216 0
vertex -2.8644818699548544 -83.86926627053965 0
vertex -3.234121550789819 -83.1777190679216 0
endloop
endfacet
facet normal 0 0 -1
outer loop
vertex 2.8644818699548527 -83.86926627053965 0
vertex 2.636858878387079 -84.6196387119355 0
vertex -2.6368588783870788 -84.6196387119355 0
endloop
endfacet
facet normal 0 0 -1
outer loop
vertex 2.8644818699548527 -83.86926627053965 0
vertex -2.6368588783870788 -84.6196387119355 0
vertex -2.8644818699548544 -83.86926627053965 0
endloop
endfacet
facet normal 0 0 -1
outer loop
vertex 2.636858878387079 -84.6196387119355 0
vertex 2.5600000000000005 -85.4 0
vertex -2.5600000000000005 -85.4 0
endloop
endfacet
facet normal 0 0 -1
outer loop
vertex 2.636858878387079 -84.6196387119355 0
vertex -2.5600000000000005 -85.4 0
vertex -2.6368588783870788 -84.6196387119355 0
endloop
endfacet
facet normal 0 0 -1
outer loop
vertex 2.5600000000000005 -85.4 0
vertex 2.6368588783870788 -86.18036128806452 0
vertex -2.6368588783870788 -86.18036128806452 0
endloop
endfacet
facet normal 0 0 -1
outer loop
vertex 2.5600000000000005 -85.4 0
vertex -2.6368588783870788 -86.18036128806452 0
vertex -2.5600000000000005 -85.4 0
endloop
endfacet
facet normal 0 0 -1
outer loop
vertex 2.6368588783870788 -86.18036128806452 0
vertex 2.8644818699548535 -86.93073372946037 0
vertex -2.8644818699548544 -86.93073372946037 0
endloop
endfacet
facet normal 0 0 -1
outer loop
vertex 2.6368588783870788 -86.18036128806452 0
vertex -2.8644818699548544 -86.93073372946037 0
vertex -2.6368588783870788 -86.18036128806452 0
endloop
endfacet
facet normal 0 0 -1
outer loop
vertex 2.8644818699548535 -86.93073372946037 0
vertex 3.234121550789819 -87.62228093207841 0
vertex -3.234121550789819 -87.62228093207841 0
endloop
endfacet
facet normal 0 0 -1
outer loop
vertex 2.8644818699548535 -86.93073372946037 0
vertex -3.234121550789819 -87.62228093207841 0
vertex -2.8644818699548544 -86.93073372946037 0
endloop
endfacet
facet normal 0 0 -1
outer loop
vertex 3.234121550789819 -87.62228093207841 0
vertex 3.7315728752538107 -88.22842712474619 0
vertex -3.7315728752538107 -88.22842712474619 0
endloop
endfacet
facet normal 0 0 -1
outer loop
vertex 3.234121550789819 -87.62228093207841 0
vertex -3.7315728752538107 -88.22842712474619 0
vertex -3.234121550789819 -87.62228093207841 0
endloop
endfacet
facet normal 0 0 -1
outer loop
vertex 3.7315728752538107 -88.22842712474619 0
vertex 3.9955603934302073 -88.44507608195705 0
vertex 3.9807852804032304 -88.59509032201613 0
endloop
endfacet
facet normal 0 0 -1
outer loop
vertex 3.7315728752538107 -88.22842712474619 0
vertex 3.9807852804032304 -88.59509032201613 0
vertex 3.923879532511288 -88.7826834323651 0
endloop
endfacet
facet normal 0 0 -1
outer loop
vertex 3.7315728752538107 -88.22842712474619 0
vertex 3.923879532511288 -88.7826834323651 0
vertex 3.8314696123025467 -88.95557023301961 0
endloop
endfacet
facet normal 0 0 -1
outer loop
vertex 3.7315728752538107 -88.22842712474619 0
vertex 3.8314696123025467 -88.95557023301961 0
vertex 3.7071067811865483 -89.10710678118656 0
endloop
endfacet
facet normal 0 0 -1
outer loop
vertex 3.7315728752538107 -88.22842712474619 0
vertex 3.7071067811865483 -89.10710678118656 0
vertex 3.555570233019602 -89.23146961230255 0
endloop
endfacet
facet normal 0 0 -1
outer loop
vertex 3.7315728752538107 -88.22842712474619 0
vertex 3.555570233019602 -89.23146961230255 0
vertex 3.3826834323650905 -89.3238795325113 0
endloop
endfacet
facet normal 0 0 -1
outer loop
vertex 3.7315728752538107 -88.22842712474619 0
vertex 3.3826834323650905 -89.3238795325113 0
vertex 3.195090322016129 -89.38078528040323 0
endloop
endfacet
facet normal 0 0 -1
outer loop
vertex 3.7315728752538107 -88.22842712474619 0
vertex 3.195090322016129 -89.38078528040323 0
vertex 3 -89.4 0
endloop
endfacet
facet normal 0 0 -1
outer loop
vertex 3.7315728752538107 -88.22842712474619 0
vertex 3 -89.4 0
vertex -2.9999999999999996 -89.4 0
endloop
endfacet
facet normal 0 0 -1
outer loop
vertex 3.7315728752538107 -88.22842712474619 0
vertex -2.9999999999999996 -89.4 0
vertex -3.195090322016129 -89.38078528040323 0
endloop
endfacet
facet normal 0 0 -1
outer loop
vertex 3.7315728752538107 -88.22842712474619 0
vertex -3.195090322016129 -89.38078528040323 0
vertex -3.3826834323650914 -89.3238795325113 0
endloop
endfacet
facet normal 0 0 -1
outer loop
vertex 3.7315728752538107 -88.22842712474619 0
vertex -3.3826834323650914 -89.3238795325113 0
vertex -3.5555702330196035 -89.23146961230255 0
endloop
endfacet
facet normal 0 0 -1
outer loop
vertex 3.7315728752538107 -88.22842712474619 0
vertex -3.5555702330196035 -89.23146961230255 0
vertex -3.7071067811865475 -89.10710678118656 0
endloop
endfacet
facet normal 0 0 -1
outer loop
vertex 3.7315728752538107 -88.22842712474619 0
vertex -3.7071067811865475 -89.10710678118656 0
vertex -3.831469612302545 -88.95557023301961 0
endloop
endfacet
facet normal 0 0 -1
outer loop
vertex 3.7315728752538107 -88.22842712474619 0
vertex -3.831469612302545 -88.95557023301961 0
vertex -3.9238795325112883 -88.7826834323651 0
endloop
endfacet
facet normal 0 0 -1
outer loop
vertex 3.7315728752538107 -88.22842712474619 0
vertex -3.9238795325112883 -88.7826834323651 0
vertex -3.98078528040323 -88.59509032201613 0
endloop
endfacet
facet normal 0 0 -1
outer loop
vertex 3.7315728752538107 -88.22842712474619 0
vertex -3.98078528040323 -88.59509032201613 0
vertex -3.9955603934302064 -88.44507608195705 0
endloop
endfacet
facet normal 0 0 -1
outer loop
vertex 3.7315728752538107 -88.22842712474619 0
vertex -3.9955603934302064 -88.44507608195705 0
vertex -3.7315728752538107 -88.22842712474619 0
endloop
endfacet
facet normal 0 -1 0
outer loop
vertex 34.3 -81.4 0
vertex 34.3 -81.4 5
vertex 30.299999999999997 -81.4 5
endloop
endfacet
facet normal 0 -1 0
outer loop
vertex 34.3 -81.4 0
vertex 30.299999999999997 -81.4 5
vertex -30.299999999999997 -81.4 5
endloop
endfacet
facet normal 0 -1 0
outer loop
vertex 34.3 -81.4 0
vertex -30.299999999999997 -81.4 5
vertex -34.3 -81.4 5
endloop
endfacet
facet normal 0 -1 0
outer loop
vertex 34.3 -81.4 0
vertex -34.3 -81.4 5
vertex -34.3 -81.4 0
endloop
endfacet
facet normal 0 -1 0
outer loop
vertex -30.299999999999997 -81.4 5
vertex -30.299999999999997 -81.4 23.8
vertex -34.3 -81.4 23.8
endloop
endfacet
facet normal 0 -1 0
outer loop
vertex -30.299999999999997 -81.4 5
vertex -34.3 -81.4 23.8
vertex -34.3 -81.4 5
endloop
endfacet
facet normal 0 -1 0
outer loop
vertex 34.3 -81.4 5
vertex 34.3 -81.4 23.8
vertex 30.299999999999997 -81.4 23.8
endloop
endfacet
facet normal 0 -1 0
outer loop
vertex 34.3 -81.4 5
vertex 30.299999999999997 -81.4 23.8
vertex 30.299999999999997 -81.4 5
endloop
endfacet
facet normal 0 0 1
outer loop
vertex 32.8 -80.60000000000001 2
vertex 32.8 -80 2
vertex -32.8 -80 2
endloop
endfacet
facet normal 0 0 1
outer loop
vertex 32.8 -80.60000000000001 2
vertex -32.8 -80 2
vertex -32.8 -80.60000000000001 2
endloop
endfacet
facet normal 1 0 0
outer loop
vertex -32.8 -80 2
vertex -32.8 -80 23.8
vertex -32.8 -80.60000000000001 23.8
endloop
endfacet
facet normal 1 0 0
outer loop
vertex -32.8 -80 2
vertex -32.8 -80.60000000000001 23.8
vertex -32.8 -80.60000000000001 5
endloop
endfacet
facet normal 1 0 0
outer loop
vertex -32.8 -80 2
vertex -32.8 -80.60000000000001 5
vertex -32.8 -80.60000000000001 2
endloop
endfacet
facet normal -1 0 0
outer loop
vertex 32.8 -80 23.8
vertex 32.8 -80 2
vertex 32.8 -80.60000000000001 2
endloop
endfacet
facet normal -1 0 0
outer loop
vertex 32.8 -80 23.8
vertex 32.8 -80.60000000000001 2
vertex 32.8 -80.60000000000001 5
endloop
endfacet
facet normal -1 0 0
outer loop
vertex 32.8 -80 23.8
vertex 32.8 -80.60000000000001 5
vertex 32.8 -80.60000000000001 23.8
endloop
endfacet
facet normal 0 1 0
outer loop
vertex -30.299999999999997 -80.60000000000001 23.8
vertex -30.299999999999997 -80.60000000000001 5
vertex -32.8 -80.60000000000001 5
endloop
endfacet
facet normal 0 1 0
outer loop
vertex -30.299999999999997 -80.60000000000001 23.8
vertex -32.8 -80.60000000000001 5
vertex -32.8 -80.60000000000001 23.8
endloop
endfacet
facet normal 0 1 0
outer loop
vertex 32.8 -80.60000000000001 23.8
vertex 32.8 -80.60000000000001 5
vertex 30.299999999999997 -80.60000000000001 5
endloop
endfacet
facet normal 0 1 0
outer loop
vertex 32.8 -80.60000000000001 23.8
vertex 30.299999999999997 -80.60000000000001 5
vertex 30.299999999999997 -80.60000000000001 23.8
endloop
endfacet
facet normal 0 1 0
outer loop
vertex -30.299999999999997 -80.60000000000001 5
vertex 30.299999999999997 -80.60000000000001 5
vertex 32.8 -80.60000000000001 5
endloop
endfacet
facet normal 0 1 0
outer loop
vertex -30.299999999999997 -80.60000000000001 5
vertex 32.8 -80.60000000000001 5
vertex 32.8 -80.60000000000001 2
endloop
endfacet
facet normal 0 1 0
outer loop
vertex -30.299999999999997 -80.60000000000001 5
vertex 32.8 -80.60000000000001 2
vertex -32.8 -80.60000000000001 2
endloop
endfacet
facet normal 0 1 0
outer loop
vertex -30.299999999999997 -80.60000000000001 5
vertex -32.8 -80.60000000000001 2
vertex -32.8 -80.60000000000001 5
endloop
endfacet
facet normal 0 0 1
outer loop
vertex 30.299999999999997 -81.4 5
vertex 30.299999999999997 -80.60000000000001 5
vertex -30.299999999999997 -80.60000000000001 5
endloop
endfacet
facet normal 0 0 1
outer loop
vertex 30.299999999999997 -81.4 5
vertex -30.299999999999997 -80.60000000000001 5
vertex -30.299999999999997 -81.4 5
endloop
endfacet
facet normal 1 0 0
outer loop
vertex -30.299999999999997 -80.60000000000001 5
vertex -30.299999999999997 -80.60000000000001 23.8
vertex -30.299999999999997 -81.4 23.8
endloop
endfacet
facet normal 1 0 0
outer loop
vertex -30.299999999999997 -80.60000000000001 5
vertex -30.299999999999997 -81.4 23.8
vertex -30.299999999999997 -81.4 5
endloop
endfacet
facet normal -1 0 0
outer loop
vertex 30.299999999999997 -81.4 23.8
vertex 30.299999999999997 -80.60000000000001 23.8
vertex 30.299999999999997 -80.60000000000001 5
endloop
endfacet
facet normal -1 0 0
outer loop
vertex 30.299999999999997 -81.4 23.8
vertex 30.299999999999997 -80.60000000000001 5
vertex 30.299999999999997 -81.4 5
endloop
endfacet
facet normal 0 0 1
outer loop
vertex -30.299999999999997 -81.4 23.8
vertex -30.299999999999997 -80.60000000000001 23.8
vertex -32.8 -80.60000000000001 23.8
endloop
endfacet
facet normal 0 0 1
outer loop
vertex -30.299999999999997 -81.4 23.8
vertex -32.8 -80.60000000000001 23.8
vertex -34.3 -80.60000000000001 23.8
endloop
endfacet
facet normal 0 0 1
outer loop
vertex -30.299999999999997 -81.4 23.8
vertex -34.3 -80.60000000000001 23.8
vertex -34.3 -81.4 23.8
endloop
endfacet
facet normal 0 0 1
outer loop
vertex 34.3 -81.4 23.8
vertex 34.3 -80.60000000000001 23.8
vertex 32.8 -80.60000000000001 23.8
endloop
endfacet
facet normal 0 0 1
outer loop
vertex 34.3 -81.4 23.8
vertex 32.8 -80.60000000000001 23.8
vertex 30.299999999999997 -80.60000000000001 23.8
endloop
endfacet
facet normal 0 0 1
outer loop
vertex 34.3 -81.4 23.8
vertex 30.299999999999997 -80.60000000000001 23.8
vertex 30.299999999999997 -81.4 23.8
endloop
endfacet
facet normal 0 0 1
outer loop
vertex -32.8 -80.60000000000001 23.8
vertex -32.8 -80 23.8
vertex -34.3 -80 23.8
endloop
endfacet
facet normal 0 0 1
outer loop
vertex -32.8 -80.60000000000001 23.8
vertex -34.3 -80 23.8
vertex -34.3 -80.60000000000001 23.8
endloop
endfacet
facet normal 0 0 1
outer loop
vertex 34.3 -80.60000000000001 23.8
vertex 34.3 -80 23.8
vertex 32.8 -80 23.8
endloop
endfacet
facet normal 0 0 1
outer loop
vertex 34.3 -80.60000000000001 23.8
vertex 32.8 -80 23.8
vertex 32.8 -80.60000000000001 23.8
endloop
endfacet
facet normal 0 0 1
outer loop
vertex -34.3 -80 23.8
vertex -32.8 -80 23.8
vertex 32.8 -80 23.8
endloop
endfacet
facet normal 0 0 1
outer loop
vertex -34.3 -80 23.8
vertex 32.8 -80 23.8
vertex 34.3 -80 23.8
endloop
endfacet
facet normal 0 0 1
outer loop
vertex -34.3 -80 23.8
vertex 34.3 -80 23.8
vertex 38.3 -80 23.8
endloop
endfacet
facet normal 0 0 1
outer loop
vertex -34.3 -80 23.8
vertex 38.3 -80 23.8
vertex 38.3 -79.19999999999999 23.8
endloop
endfacet
facet normal 0 0 1
outer loop
vertex -34.3 -80 23.8
vertex 38.3 -79.19999999999999 23.8
vertex 37.5 -79.19999999999999 23.8
endloop
endfacet
facet normal 0 0 1
outer loop
vertex -34.3 -80 23.8
vertex 37.5 -79.19999999999999 23.8
vertex -37.5 -79.19999999999999 23.8
endloop
endfacet
facet normal 0 0 1
outer loop
vertex -34.3 -80 23.8
vertex -37.5 -79.19999999999999 23.8
vertex -38.3 -79.19999999999999 23.8
endloop
endfacet
facet normal 0 0 1
outer loop
vertex -34.3 -80 23.8
vertex -38.3 -79.19999999999999 23.8
vertex -38.3 -80 23.8
endloop
endfacet
facet normal 0 0 1
outer loop
vertex -37.5 -79.19999999999999 23.8
vertex -37.5 -66.73333333333332 23.8
vertex -38.3 -66.73333333333332 23.8
endloop
endfacet
facet normal 0 0 1
outer loop
vertex -37.5 -79.19999999999999 23.8
vertex -38.3 -66.73333333333332 23.8
vertex -38.3 -79.19999999999999 23.8
endloop
endfacet
facet normal 0 0 1
outer loop
vertex 38.3 -79.19999999999999 23.8
vertex 38.3 -66.73333333333332 23.8
vertex 37.5 -66.73333333333332 23.8
endloop
endfacet
facet normal 0 0 1
outer loop
vertex 38.3 -79.19999999999999 23.8
vertex 37.5 -66.73333333333332 23.8
vertex 37.5 -79.19999999999999 23.8
endloop
endfacet
facet normal 0 0 1
outer loop
vertex -37.5 -66.73333333333332 23.8
vertex 37.5 -66.73333333333332 23.8
vertex 38.3 -66.73333333333332 23.8
endloop
endfacet
facet normal 0 0 1
outer loop
vertex -37.5 -66.73333333333332 23.8
vertex 38.3 -66.73333333333332 23.8
vertex 38.3 -65.93333333333332 23.8
endloop
endfacet
facet normal 0 0 1
outer loop
vertex -37.5 -66.73333333333332 23.8
vertex 38.3 -65.93333333333332 23.8
vertex 37.5 -65.93333333333332 23.8
endloop
endfacet
facet normal 0 0 1
outer loop
vertex -37.5 -66.73333333333332 23.8
vertex 37.5 -65.93333333333332 23.8
vertex -37.5 -65.93333333333332 23.8
endloop
endfacet
facet normal 0 0 1
outer loop
vertex -37.5 -66.73333333333332 23.8
vertex -37.5 -65.93333333333332 23.8
vertex -38.3 -65.93333333333332 23.8
endloop
endfacet
facet normal 0 0 1
outer loop
vertex -37.5 -66.73333333333332 23.8
vertex -38.3 -65.93333333333332 23.8
vertex -38.3 -66.73333333333332 23.8
endloop
endfacet
facet normal 0 0 1
outer loop
vertex -37.5 -65.93333333333332 23.8
vertex -37.5 -53.466666666666654 23.8
vertex -38.3 -53.466666666666654 23.8
endloop
endfacet
facet normal 0 0 1
outer loop
vertex -37.5 -65.93333333333332 23.8
vertex -38.3 -53.466666666666654 23.8
vertex -38.3 -65.93333333333332 23.8
endloop
endfacet
facet normal 0 0 1
outer loop
vertex 38.3 -65.93333333333332 23.8
vertex 38.3 -53.466666666666654 23.8
vertex 37.5 -53.466666666666654 23.8
endloop
endfacet
facet normal 0 0 1
outer loop
vertex 38.3 -65.93333333333332 23.8
vertex 37.5 -53.466666666666654 23.8
vertex 37.5 -65.93333333333332 23.8
endloop
endfacet
facet normal 0 0 1
outer loop
vertex -37.5 -53.466666666666654 23.8
vertex 37.5 -53.466666666666654 23.8
vertex 38.3 -53.466666666666654 23.8
endloop
endfacet
facet normal 0 0 1
outer loop
vertex -37.5 -53.466666666666654 23.8
vertex 38.3 -53.466666666666654 23.8
vertex 38.3 -52.66666666666666 23.8
endloop
endfacet
facet normal 0 0 1
outer loop
vertex -37.5 -53.466666666666654 23.8
vertex 38.3 -52.66666666666666 23.8
vertex 37.5 -52.66666666666666 23.8
endloop
endfacet
facet normal 0 0 1
outer loop
vertex -37.5 -53.466666666666654 23.8
vertex 37.5 -52.66666666666666 23.8
vertex -37.5 -52.66666666666666 23.8
endloop
endfacet
facet normal 0 0 1
outer loop
vertex -37.5 -53.466666666666654 23.8
vertex -37.5 -52.66666666666666 23.8
vertex -38.3 -52.66666666666666 23.8
endloop
endfacet
facet normal 0 0 1
outer loop
vertex -37.5 -53.466666666666654 23.8
vertex -38.3 -52.66666666666666 23.8
vertex -38.3 -53.466666666666654 23.8
endloop
endfacet
facet normal 0 0 1
outer loop
vertex -37.5 -52.66666666666666 23.8
vertex -37.5 -40.19999999999999 23.8
vertex -38.3 -40.19999999999999 23.8
endloop
endfacet
facet normal 0 0 1
outer loop
vertex -37.5 -52.66666666666666 23.8
vertex -38.3 -40.19999999999999 23.8
vertex -38.3 -52.66666666666666 23.8
endloop
endfacet
facet normal 0 0 1
outer loop
vertex 38.3 -52.66666666666666 23.8
vertex 38.3 -40.19999999999999 23.8
vertex 37.5 -40.19999999999999 23.8
endloop
endfacet
facet normal 0 0 1
outer loop
vertex 38.3 -52.66666666666666 23.8
vertex 37.5 -40.19999999999999 23.8
vertex 37.5 -52.66666666666666 23.8
endloop
endfacet
facet normal 0 0 1
outer loop
vertex -37.5 -40.19999999999999 23.8
vertex 37.5 -40.19999999999999 23.8
vertex 38.3 -40.19999999999999 23.8
endloop
endfacet
facet normal 0 0 1
outer loop
vertex -37.5 -40.19999999999999 23.8
vertex 38.3 -40.19999999999999 23.8
vertex 38.3 -39.39999999999999 23.8
endloop
endfacet
facet normal 0 0 1
outer loop
vertex -37.5 -40.19999999999999 23.8
vertex 38.3 -39.39999999999999 23.8
vertex 37.5 -39.39999999999999 23.8
endloop
endfacet
facet normal 0 0 1
outer loop
vertex -37.5 -40.19999999999999 23.8
vertex 37.5 -39.39999999999999 23.8
vertex -37.5 -39.39999999999999 23.8
endloop
endfacet
facet normal 0 0 1
outer loop
vertex -37.5 -40.19999999999999 23.8
vertex -37.5 -39.39999999999999 23.8
vertex -38.3 -39.39999999999999 23.8
endloop
endfacet
facet normal 0 0 1
outer loop
vertex -37.5 -40.19999999999999 23.8
vertex -38.3 -39.39999999999999 23.8
vertex -38.3 -40.19999999999999 23.8
endloop
endfacet
facet normal 0 0 1
outer loop
vertex -37.5 -39.39999999999999 23.8
vertex -37.5 -26.933333333333323 23.8
vertex -38.3 -26.933333333333323 23.8
endloop
endfacet
facet normal 0 0 1
outer loop
vertex -37.5 -39.39999999999999 23.8
vertex -38.3 -26.933333333333323 23.8
vertex -38.3 -39.39999999999999 23.8
endloop
endfacet
facet normal 0 0 1
outer loop
vertex 38.3 -39.39999999999999 23.8
vertex 38.3 -26.933333333333323 23.8
vertex 37.5 -26.933333333333323 23.8
endloop
endfacet
facet normal 0 0 1
outer loop
vertex 38.3 -39.39999999999999 23.8
vertex 37.5 -26.933333333333323 23.8
vertex 37.5 -39.39999999999999 23.8
endloop
endfacet
facet normal 0 0 1
outer loop
vertex -37.5 -26.933333333333323 23.8
vertex 37.5 -26.933333333333323 23.8
vertex 38.3 -26.933333333333323 23.8
endloop
endfacet
facet normal 0 0 1
outer loop
vertex -37.5 -26.933333333333323 23.8
vertex 38.3 -26.933333333333323 23.8
vertex 38.3 -26.133333333333326 23.8
endloop
endfacet
facet normal 0 0 1
outer loop
vertex -37.5 -26.933333333333323 23.8
vertex 38.3 -26.133333333333326 23.8
vertex 37.5 -26.133333333333326 23.8
endloop
endfacet
facet normal 0 0 1
outer loop
vertex -37.5 -26.933333333333323 23.8
vertex 37.5 -26.133333333333326 23.8
vertex -37.5 -26.133333333333326 23.8
endloop
endfacet
facet normal 0 0 1
outer loop
vertex -37.5 -26.933333333333323 23.8
vertex -37.5 -26.133333333333326 23.8
vertex -38.3 -26.133333333333326 23.8
endloop
endfacet
facet normal 0 0 1
outer loop
vertex -37.5 -26.933333333333323 23.8
vertex -38.3 -26.133333333333326 23.8
vertex -38.3 -26.933333333333323 23.8
endloop
endfacet
facet normal 0 0 1
outer loop
vertex -37.5 -26.133333333333326 23.8
vertex -37.5 -13.666666666666657 23.8
vertex -38.3 -13.666666666666657 23.8
endloop
endfacet
facet normal 0 0 1
outer loop
vertex -37.5 -26.133333333333326 23.8
vertex -38.3 -13.666666666666657 23.8
vertex -38.3 -26.133333333333326 23.8
endloop
endfacet
facet normal 0 0 1
outer loop
vertex 38.3 -26.133333333333326 23.8
vertex 38.3 -13.666666666666657 23.8
vertex 37.5 -13.666666666666657 23.8
endloop
endfacet
facet normal 0 0 1
outer loop
vertex 38.3 -26.133333333333326 23.8
vertex 37.5 -13.666666666666657 23.8
vertex 37.5 -26.133333333333326 23.8
endloop
endfacet
facet normal 0 0 1
outer loop
vertex -37.5 -13.666666666666657 23.8
vertex 37.5 -13.666666666666657 23.8
vertex 38.3 -13.666666666666657 23.8
endloop
endfacet
facet normal 0 0 1
outer loop
vertex -37.5 -13.666666666666657 23.8
vertex 38.3 -13.666666666666657 23.8
vertex 38.3 -12.86666666666666 23.8
endloop
endfacet
facet normal 0 0 1
outer loop
vertex -37.5 -13.666666666666657 23.8
vertex 38.3 -12.86666666666666 23.8
vertex 37.5 -12.86666666666666 23.8
endloop
endfacet
facet normal 0 0 1
outer loop
vertex -37.5 -13.666666666666657 23.8
vertex 37.5 -12.86666666666666 23.8
vertex -37.5 -12.86666666666666 23.8
endloop
endfacet
facet normal 0 0 1
outer loop
vertex -37.5 -13.666666666666657 23.8
vertex -37.5 -12.86666666666666 23.8
vertex -38.3 -12.86666666666666 23.8
endloop
endfacet
facet normal 0 0 1
outer loop
vertex -37.5 -13.666666666666657 23.8
vertex -38.3 -12.86666666666666 23.8
vertex -38.3 -13.666666666666657 23.8
endloop
endfacet
facet normal 0 0 1
outer loop
vertex -37.5 -12.86666666666666 23.8
vertex -37.5 -0.3999999999999915 23.8
vertex -38.3 -0.3999999999999915 23.8
endloop
endfacet
facet normal 0 0 1
outer loop
vertex -37.5 -12.86666666666666 23.8
vertex -38.3 -0.3999999999999915 23.8
vertex -38.3 -12.86666666666666 23.8
endloop
endfacet
facet normal 0 0 1
outer loop
vertex 38.3 -12.86666666666666 23.8
vertex 38.3 -0.3999999999999915 23.8
vertex 37.5 -0.3999999999999915 23.8
endloop
endfacet
facet normal 0 0 1
outer loop
vertex 38.3 -12.86666666666666 23.8
vertex 37.5 -0.3999999999999915 23.8
vertex 37.5 -12.86666666666666 23.8
endloop
endfacet
facet normal 0 0 1
outer loop
vertex -37.5 -0.3999999999999915 23.8
vertex 37.5 -0.3999999999999915 23.8
vertex 38.3 -0.3999999999999915 23.8
endloop
endfacet
facet normal 0 0 1
outer loop
vertex -37.5 -0.3999999999999915 23.8
vertex 38.3 -0.3999999999999915 23.8
vertex 38.3 0.4000000000000057 23.8
endloop
endfacet
facet normal 0 0 1
outer loop
vertex -37.5 -0.3999999999999915 23.8
vertex 38.3 0.4000000000000057 23.8
vertex 37.5 0.4000000000000057 23.8
endloop
endfacet
facet normal 0 0 1
outer loop
vertex -37.5 -0.3999999999999915 23.8
vertex 37.5 0.4000000000000057 23.8
vertex -37.5 0.4000000000000057 23.8
endloop
endfacet
facet normal 0 0 1
outer loop
vertex -37.5 -0.3999999999999915 23.8
vertex -37.5 0.4000000000000057 23.8
vertex -38.3 0.4000000000000057 23.8
endloop
endfacet
facet normal 0 0 1
outer loop
vertex -37.5 -0.3999999999999915 23.8
vertex -38.3 0.4000000000000057 23.8
vertex -38.3 -0.3999999999999915 23.8
endloop
endfacet
facet normal 0 0 1
outer loop
vertex -37.5 0.4000000000000057 23.8
vertex -37.5 12.866666666666674 23.8
vertex -38.3 12.866666666666674 23.8
endloop
endfacet
facet normal 0 0 1
outer loop
vertex -37.5 0.4000000000000057 23.8
vertex -38.3 12.866666666666674 23.8
vertex -38.3 0.4000000000000057 23.8
endloop
endfacet
facet normal 0 0 1
outer loop
vertex 38.3 0.4000000000000057 23.8
vertex 38.3 12.866666666666674 23.8
vertex 37.5 12.866666666666674 23.8
endloop
endfacet
facet normal 0 0 1
outer loop
vertex 38.3 0.4000000000000057 23.8
vertex 37.5 12.866666666666674 23.8
vertex 37.5 0.4000000000000057 23.8
endloop
endfacet
facet normal 0 0 1
outer loop
vertex -37.5 12.866666666666674 23.8
vertex 37.5 12.866666666666674 23.8
vertex 38.3 12.866666666666674 23.8
endloop
endfacet
facet normal 0 0 1
outer loop
vertex -37.5 12.866666666666674 23.8
vertex 38.3 12.866666666666674 23.8
vertex 38.3 13.666666666666671 23.8
endloop
endfacet
facet normal 0 0 1
outer loop
vertex -37.5 12.866666666666674 23.8
vertex 38.3 13.666666666666671 23.8
vertex 37.5 13.666666666666671 23.8
endloop
endfacet
facet normal 0 0 1
outer loop
vertex -37.5 12.866666666666674 23.8
vertex 37.5 13.666666666666671 23.8
vertex -37.5 13.666666666666671 23.8
endloop
endfacet
facet normal 0 0 1
outer loop
vertex -37.5 12.866666666666674 23.8
vertex -37.5 13.666666666666671 23.8
vertex -38.3 13.666666666666671 23.8
endloop
endfacet
facet normal 0 0 1
outer loop
vertex -37.5 12.866666666666674 23.8
vertex -38.3 13.666666666666671 23.8
vertex -38.3 12.866666666666674 23.8
endloop
endfacet
facet normal 0 0 1
outer loop
vertex -37.5 13.666666666666671 23.8
vertex -37.5 26.13333333333334 23.8
vertex -38.3 26.13333333333334 23.8
endloop
endfacet
facet normal 0 0 1
outer loop
vertex -37.5 13.666666666666671 23.8
vertex -38.3 26.13333333333334 23.8
vertex -38.3 13.666666666666671 23.8
endloop
endfacet
facet normal 0 0 1
outer loop
vertex 38.3 13.666666666666671 23.8
vertex 38.3 26.13333333333334 23.8
vertex 37.5 26.13333333333334 23.8
endloop
endfacet
facet normal 0 0 1
outer loop
vertex 38.3 13.666666666666671 23.8
vertex 37.5 26.13333333333334 23.8
vertex 37.5 13.666666666666671 23.8
endloop
endfacet
facet normal 0 0 1
outer loop
vertex -37.5 26.13333333333334 23.8
vertex 37.5 26.13333333333334 23.8
vertex 38.3 26.13333333333334 23.8
endloop
endfacet
facet normal 0 0 1
outer loop
vertex -37.5 26.13333333333334 23.8
vertex 38.3 26.13333333333334 23.8
vertex 38.3 26.933333333333337 23.8
endloop
endfacet
facet normal 0 0 1
outer loop
vertex -37.5 26.13333333333334 23.8
vertex 38.3 26.933333333333337 23.8
vertex 37.5 26.933333333333337 23.8
endloop
endfacet
facet normal 0 0 1
outer loop
vertex -37.5 26.13333333333334 23.8
vertex 37.5 26.933333333333337 23.8
vertex -37.5 26.933333333333337 23.8
endloop
endfacet
facet normal 0 0 1
outer loop
vertex -37.5 26.13333333333334 23.8
vertex -37.5 26.933333333333337 23.8
vertex -38.3 26.933333333333337 23.8
endloop
endfacet
facet normal 0 0 1
outer loop
vertex -37.5 26.13333333333334 23.8
vertex -38.3 26.933333333333337 23.8
vertex -38.3 26.13333333333334 23.8
endloop
endfacet
facet normal 0 0 1
outer loop
vertex -37.5 26.933333333333337 23.8
vertex -37.5 39.400000000000006 23.8
vertex -38.3 39.400000000000006 23.8
endloop
endfacet
facet normal 0 0 1
outer loop
vertex -37.5 26.933333333333337 23.8
vertex -38.3 39.400000000000006 23.8
vertex -38.3 26.933333333333337 23.8
endloop
endfacet
facet normal 0 0 1
outer loop
vertex 38.3 26.933333333333337 23.8
vertex 38.3 39.400000000000006 23.8
vertex 37.5 39.400000000000006 23.8
endloop
endfacet
facet normal 0 0 1
outer loop
vertex 38.3 26.933333333333337 23.8
vertex 37.5 39.400000000000006 23.8
vertex 37.5 26.933333333333337 23.8
endloop
endfacet
facet normal 0 0 1
outer loop
vertex -37.5 39.400000000000006 23.8
vertex 37.5 39.400000000000006 23.8
vertex 38.3 39.400000000000006 23.8
endloop
endfacet
facet normal 0 0 1
outer loop
vertex -37.5 39.400000000000006 23.8
vertex 38.3 39.400000000000006 23.8
vertex 38.3 40.2 23.8
endloop
endfacet
facet normal 0 0 1
outer loop
vertex -37.5 39.400000000000006 23.8
vertex 38.3 40.2 23.8
vertex 37.5 40.2 23.8
endloop
endfacet
facet normal 0 0 1
outer loop
vertex -37.5 39.400000000000006 23.8
vertex 37.5 40.2 23.8
vertex -37.5 40.2 23.8
endloop
endfacet
facet normal 0 0 1
outer loop
vertex -37.5 39.400000000000006 23.8
vertex -37.5 40.2 23.8
vertex -38.3 40.2 23.8
endloop
endfacet
facet normal 0 0 1
outer loop
vertex -37.5 39.400000000000006 23.8
vertex -38.3 40.2 23.8
vertex -38.3 39.400000000000006 23.8
endloop
endfacet
facet normal 0 0 1
outer loop
vertex -37.5 40.2 23.8
vertex -37.5 52.66666666666667 23.8
vertex -38.3 52.66666666666667 23.8
endloop
endfacet
facet normal 0 0 1
outer loop
vertex -37.5 40.2 23.8
vertex -38.3 52.66666666666667 23.8
vertex -38.3 40.2 23.8
endloop
endfacet
facet normal 0 0 1
outer loop
vertex 38.3 40.2 23.8
vertex 38.3 52.66666666666667 23.8
vertex 37.5 52.66666666666667 23.8
endloop
endfacet
facet normal 0 0 1
outer loop
vertex 38.3 40.2 23.8
vertex 37.5 52.66666666666667 23.8
vertex 37.5 40.2 23.8
endloop
endfacet
facet normal 0 0 1
outer loop
vertex -37.5 52.66666666666667 23.8
vertex 37.5 52.66666666666667 23.8
vertex 38.3 52.66666666666667 23.8
endloop
endfacet
facet normal 0 0 1
outer loop
vertex -37.5 52.66666666666667 23.8
vertex 38.3 52.66666666666667 23.8
vertex 38.3 53.46666666666667 23.8
endloop
endfacet
facet normal 0 0 1
outer loop
vertex -37.5 52.66666666666667 23.8
vertex 38.3 53.46666666666667 23.8
vertex 37.5 53.46666666666667 23.8
endloop
endfacet
facet normal 0 0 1
outer loop
vertex -37.5 52.66666666666667 23.8
vertex 37.5 53.46666666666667 23.8
vertex -37.5 53.46666666666667 23.8
endloop
endfacet
facet normal 0 0 1
outer loop
vertex -37.5 52.66666666666667 23.8
vertex -37.5 53.46666666666667 23.8
vertex -38.3 53.46666666666667 23.8
endloop
endfacet
facet normal 0 0 1
outer loop
vertex -37.5 52.66666666666667 23.8
vertex -38.3 53.46666666666667 23.8
vertex -38.3 52.66666666666667 23.8
endloop
endfacet
facet normal 0 0 1
outer loop
vertex -37.5 53.46666666666667 23.8
vertex -37.5 65.93333333333334 23.8
vertex -38.3 65.93333333333334 23.8
endloop
endfacet
facet normal 0 0 1
outer loop
vertex -37.5 53.46666666666667 23.8
vertex -38.3 65.93333333333334 23.8
vertex -38.3 53.46666666666667 23.8
endloop
endfacet
facet normal 0 0 1
outer loop
vertex 38.3 53.46666666666667 23.8
vertex 38.3 65.93333333333334 23.8
vertex 37.5 65.93333333333334 23.8
endloop
endfacet
facet normal 0 0 1
outer loop
vertex 38.3 53.46666666666667 23.8
vertex 37.5 65.93333333333334 23.8
vertex 37.5 53.46666666666667 23.8
endloop
endfacet
facet normal 0 0 1
outer loop
vertex -37.5 65.93333333333334 23.8
vertex 37.5 65.93333333333334 23.8
vertex 38.3 65.93333333333334 23.8
endloop
endfacet
facet normal 0 0 1
outer loop
vertex -37.5 65.93333333333334 23.8
vertex 38.3 65.93333333333334 23.8
vertex 38.3 66.73333333333333 23.8
endloop
endfacet
facet normal 0 0 1
outer loop
vertex -37.5 65.93333333333334 23.8
vertex 38.3 66.73333333333333 23.8
vertex 37.5 66.73333333333333 23.8
endloop
endfacet
facet normal 0 0 1
outer loop
vertex -37.5 65.93333333333334 23.8
vertex 37.5 66.73333333333333 23.8
vertex -37.5 66.73333333333333 23.8
endloop
endfacet
facet normal 0 0 1
outer loop
vertex -37.5 65.93333333333334 23.8
vertex -37.5 66.73333333333333 23.8
vertex -38.3 66.73333333333333 23.8
endloop
endfacet
facet normal 0 0 1
outer loop
vertex -37.5 65.93333333333334 23.8
vertex -38.3 66.73333333333333 23.8
vertex -38.3 65.93333333333334 23.8
endloop
endfacet
facet normal 0 0 1
outer loop
vertex -37.5 66.73333333333333 23.8
vertex -37.5 79.2 23.8
vertex -38.3 79.2 23.8
endloop
endfacet
facet normal 0 0 1
outer loop
vertex -37.5 66.73333333333333 23.8
vertex -38.3 79.2 23.8
vertex -38.3 66.73333333333333 23.8
endloop
endfacet
facet normal 0 0 1
outer loop
vertex 38.3 66.73333333333333 23.8
vertex 38.3 79.2 23.8
vertex 37.5 79.2 23.8
endloop
endfacet
facet normal 0 0 1
outer loop
vertex 38.3 66.73333333333333 23.8
vertex 37.5 79.2 23.8
vertex 37.5 66.73333333333333 23.8
endloop
endfacet
facet normal 0 0 1
outer loop
vertex -37.5 79.2 23.8
vertex 37.5 79.2 23.8
vertex 38.3 79.2 23.8
endloop
endfacet
facet normal 0 0 1
outer loop
vertex -37.5 79.2 23.8
vertex 38.3 79.2 23.8
vertex 38.3 80 23.8
endloop
endfacet
facet normal 0 0 1
outer loop
vertex -37.5 79.2 23.8
vertex 38.3 80 23.8
vertex -38.3 80 23.8
endloop
endfacet
facet normal 0 0 1
outer loop
vertex -37.5 79.2 23.8
vertex -38.3 80 23.8
vertex -38.3 79.2 23.8
endloop
endfacet
facet normal -1 0 0
outer loop
vertex -38.3 -80 0
vertex -38.3 -80 23.8
vertex -38.3 -79.19999999999999 23.8
endloop
endfacet
facet normal -1 0 0
outer loop
vertex -38.3 -80 0
vertex -38.3 -79.19999999999999 23.8
vertex -38.3 -66.73333333333332 23.8
endloop
endfacet
facet normal -1 0 0
outer loop
vertex -38.3 -80 0
vertex -38.3 -66.73333333333332 23.8
vertex -38.3 -65.93333333333332 23.8
endloop
endfacet
facet normal -1 0 0
outer loop
vertex -38.3 -80 0
vertex -38.3 -65.93333333333332 23.8
vertex -38.3 -53.466666666666654 23.8
endloop
endfacet
facet normal -1 0 0
outer loop
vertex -38.3 -80 0
vertex -38.3 -53.466666666666654 23.8
vertex -38.3 -52.66666666666666 23.8
endloop
endfacet
facet normal -1 0 0
outer loop
vertex -38.3 -80 0
vertex -38.3 -52.66666666666666 23.8
vertex -38.3 -40.19999999999999 23.8
endloop
endfacet
facet normal -1 0 0
outer loop
vertex -38.3 -80 0
vertex -38.3 -40.19999999999999 23.8
vertex -38.3 -39.39999999999999 23.8
endloop
endfacet
facet normal -1 0 0
outer loop
vertex -38.3 -80 0
vertex -38.3 -39.39999999999999 23.8
vertex -38.3 -26.933333333333323 23.8
endloop
endfacet
facet normal -1 0 0
outer loop
vertex -38.3 -80 0
vertex -38.3 -26.933333333333323 23.8
vertex -38.3 -26.133333333333326 23.8
endloop
endfacet
facet normal -1 0 0
outer loop
vertex -38.3 -80 0
vertex -38.3 -26.133333333333326 23.8
vertex -38.3 -13.666666666666657 23.8
endloop
endfacet
facet normal -1 0 0
outer loop
vertex -38.3 -80 0
vertex -38.3 -13.666666666666657 23.8
vertex -38.3 -12.86666666666666 23.8
endloop
endfacet
facet normal -1 0 0
outer loop
vertex -38.3 -80 0
vertex -38.3 -12.86666666666666 23.8
vertex -38.3 -0.3999999999999915 23.8
endloop
endfacet
facet normal -1 0 0
outer loop
vertex -38.3 -80 0
vertex -38.3 -0.3999999999999915 23.8
vertex -38.3 0.4000000000000057 23.8
endloop
endfacet
facet normal -1 0 0
outer loop
vertex -38.3 -80 0
vertex -38.3 0.4000000000000057 23.8
vertex -38.3 12.866666666666674 23.8
endloop
endfacet
facet normal -1 0 0
outer loop
vertex -38.3 -80 0
vertex -38.3 12.866666666666674 23.8
vertex -38.3 13.666666666666671 23.8
endloop
endfacet
facet normal -1 0 0
outer loop
vertex -38.3 -80 0
vertex -38.3 13.666666666666671 23.8
vertex -38.3 26.13333333333334 23.8
endloop
endfacet
facet normal -1 0 0
outer loop
vertex -38.3 -80 0
vertex -38.3 26.13333333333334 23.8
vertex -38.3 26.933333333333337 23.8
endloop
endfacet
facet normal -1 0 0
outer loop
vertex -38.3 -80 0
vertex -38.3 26.933333333333337 23.8
vertex -38.3 39.400000000000006 23.8
endloop
endfacet
facet normal -1 0 0
outer loop
vertex -38.3 -80 0
vertex -38.3 39.400000000000006 23.8
vertex -38.3 40.2 23.8
endloop
endfacet
facet normal -1 0 0
outer loop
vertex -38.3 -80 0
vertex -38.3 40.2 23.8
vertex -38.3 52.66666666666667 23.8
endloop
endfacet
facet normal -1 0 0
outer loop
vertex -38.3 -80 0
vertex -38.3 52.66666666666667 23.8
vertex -38.3 53.46666666666667 23.8
endloop
endfacet
facet normal -1 0 0
outer loop
vertex -38.3 -80 0
vertex -38.3 53.46666666666667 23.8
vertex -38.3 65.93333333333334 23.8
endloop
endfacet
facet normal -1 0 0
outer loop
vertex -38.3 -80 0
vertex -38.3 65.93333333333334 23.8
vertex -38.3 66.73333333333333 23.8
endloop
endfacet
facet normal -1 0 0
outer loop
vertex -38.3 -80 0
vertex -38.3 66.73333333333333 23.8
vertex -38.3 79.2 23.8
endloop
endfacet
facet normal -1 0 0
outer loop
vertex -38.3 -80 0
vertex -38.3 79.2 23.8
vertex -38.3 80 23.8
endloop
endfacet
facet normal -1 0 0
outer loop
vertex -38.3 -80 0
vertex -38.3 80 23.8
vertex -38.3 80 0
endloop
endfacet
facet normal 1 0 0
outer loop
vertex 38.3 -80 0
vertex 38.3 80 0
vertex 38.3 80 23.8
endloop
endfacet
facet normal 1 0 0
outer loop
vertex 38.3 -80 0
vertex 38.3 80 23.8
vertex 38.3 79.2 23.8
endloop
endfacet
facet normal 1 0 0
outer loop
vertex 38.3 -80 0
vertex 38.3 79.2 23.8
vertex 38.3 66.73333333333333 23.8
endloop
endfacet
facet normal 1 0 0
outer loop
vertex 38.3 -80 0
vertex 38.3 66.73333333333333 23.8
vertex 38.3 65.93333333333334 23.8
endloop
endfacet
facet normal 1 0 0
outer loop
vertex 38.3 -80 0
vertex 38.3 65.93333333333334 23.8
vertex 38.3 53.46666666666667 23.8
endloop
endfacet
facet normal 1 0 0
outer loop
vertex 38.3 -80 0
vertex 38.3 53.46666666666667 23.8
vertex 38.3 52.66666666666667 23.8
endloop
endfacet
facet normal 1 0 0
outer loop
vertex 38.3 -80 0
vertex 38.3 52.66666666666667 23.8
vertex 38.3 40.2 23.8
endloop
endfacet
facet normal 1 0 0
outer loop
vertex 38.3 -80 0
vertex 38.3 40.2 23.8
vertex 38.3 39.400000000000006 23.8
endloop
endfacet
facet normal 1 0 0
outer loop
vertex 38.3 -80 0
vertex 38.3 39.400000000000006 23.8
vertex 38.3 26.933333333333337 23.8
endloop
endfacet
facet normal 1 0 0
outer loop
vertex 38.3 -80 0
vertex 38.3 26.933333333333337 23.8
vertex 38.3 26.13333333333334 23.8
endloop
endfacet
facet normal 1 0 0
outer loop
vertex 38.3 -80 0
vertex 38.3 26.13333333333334 23.8
vertex 38.3 13.666666666666671 23.8
endloop
endfacet
facet normal 1 0 0
outer loop
vertex 38.3 -80 0
vertex 38.3 13.666666666666671 23.8
vertex 38.3 12.866666666666674 23.8
endloop
endfacet
facet normal 1 0 0
outer loop
vertex 38.3 -80 0
vertex 38.3 12.866666666666674 23.8
vertex 38.3 0.4000000000000057 23.8
endloop
endfacet
facet normal 1 0 0
outer loop
vertex 38.3 -80 0
vertex 38.3 0.4000000000000057 23.8
vertex 38.3 -0.3999999999999915 23.8
endloop
endfacet
facet normal 1 0 0
outer loop
vertex 38.3 -80 0
vertex 38.3 -0.3999999999999915 23.8
vertex 38.3 -12.86666666666666 23.8
endloop
endfacet
facet normal 1 0 0
outer loop
vertex 38.3 -80 0
vertex 38.3 -12.86666666666666 23.8
vertex 38.3 -13.666666666666657 23.8
endloop
endfacet
facet normal 1 0 0
outer loop
vertex 38.3 -80 0
vertex 38.3 -13.666666666666657 23.8
vertex 38.3 -26.133333333333326 23.8
endloop
endfacet
facet normal 1 0 0
outer loop
vertex 38.3 -80 0
vertex 38.3 -26.133333333333326 23.8
vertex 38.3 -26.933333333333323 23.8
endloop
endfacet
facet normal 1 0 0
outer loop
vertex 38.3 -80 0
vertex 38.3 -26.933333333333323 23.8
vertex 38.3 -39.39999999999999 23.8
endloop
endfacet
facet normal 1 0 0
outer loop
vertex 38.3 -80 0
vertex 38.3 -39.39999999999999 23.8
vertex 38.3 -40.19999999999999 23.8
endloop
endfacet
facet normal 1 0 0
outer loop
vertex 38.3 -80 0
vertex 38.3 -40.19999999999999 23.8
vertex 38.3 -52.66666666666666 23.8
endloop
endfacet
facet normal 1 0 0
outer loop
vertex 38.3 -80 0
vertex 38.3 -52.66666666666666 23.8
vertex 38.3 -53.466666666666654 23.8
endloop
endfacet
facet normal 1 0 0
outer loop
vertex 38.3 -80 0
vertex 38.3 -53.466666666666654 23.8
vertex 38.3 -65.93333333333332 23.8
endloop
endfacet
facet normal 1 0 0
outer loop
vertex 38.3 -80 0
vertex 38.3 -65.93333333333332 23.8
vertex 38.3 -66.73333333333332 23.8
endloop
endfacet
facet normal 1 0 0
outer loop
vertex 38.3 -80 0
vertex 38.3 -66.73333333333332 23.8
vertex 38.3 -79.19999999999999 23.8
endloop
endfacet
facet normal 1 0 0
outer loop
vertex 38.3 -80 0
vertex 38.3 -79.19999999999999 23.8
vertex 38.3 -80 23.8
endloop
endfacet
facet normal 0 1 0
outer loop
vertex -38.3 80 0
vertex -38.3 80 23.8
vertex 38.3 80 23.8
endloop
endfacet
facet normal 0 1 0
outer loop
vertex -38.3 80 0
vertex 38.3 80 23.8
vertex 38.3 80 0
endloop
endfacet
facet normal 0 0 1
outer loop
vertex 37.5 -79.19999999999999 1.200000000000001
vertex 37.5 -66.73333333333332 1.200000000000001
vertex -37.5 -66.73333333333332 1.200000000000001
endloop
endfacet
facet normal 0 0 1
outer loop
vertex 37.5 -79.19999999999999 1.200000000000001
vertex -37.5 -66.73333333333332 1.200000000000001
vertex -37.5 -79.19999999999999 1.200000000000001
endloop
endfacet
facet normal 0 0 1
outer loop
vertex 37.5 -65.93333333333332 1.200000000000001
vertex 37.5 -53.466666666666654 1.200000000000001
vertex -37.5 -53.466666666666654 1.200000000000001
endloop
endfacet
facet normal 0 0 1
outer loop
vertex 37.5 -65.93333333333332 1.200000000000001
vertex -37.5 -53.466666666666654 1.200000000000001
vertex -37.5 -65.93333333333332 1.200000000000001
endloop
endfacet
facet normal 0 0 1
outer loop
vertex 37.5 -52.66666666666666 1.200000000000001
vertex 37.5 -40.19999999999999 1.200000000000001
vertex -37.5 -40.19999999999999 1.200000000000001
endloop
endfacet
facet normal 0 0 1
outer loop
vertex 37.5 -52.66666666666666 1.200000000000001
vertex -37.5 -40.19999999999999 1.200000000000001
vertex -37.5 -52.66666666666666 1.200000000000001
endloop
endfacet
facet normal 0 0 1
outer loop
vertex 37.5 -39.39999999999999 1.200000000000001
vertex 37.5 -26.933333333333323 1.200000000000001
vertex -37.5 -26.933333333333323 1.200000000000001
endloop
endfacet
facet normal 0 0 1
outer loop
vertex 37.5 -39.39999999999999 1.200000000000001
vertex -37.5 -26.933333333333323 1.200000000000001
vertex -37.5 -39.39999999999999 1.200000000000001
endloop
endfacet
facet normal 0 0 1
outer loop
vertex 37.5 -26.133333333333326 1.200000000000001
vertex 37.5 -13.666666666666657 1.200000000000001
vertex -37.5 -13.666666666666657 1.200000000000001
endloop
endfacet
facet normal 0 0 1
outer loop
vertex 37.5 -26.133333333333326 1.200000000000001
vertex -37.5 -13.666666666666657 1.200000000000001
vertex -37.5 -26.133333333333326 1.200000000000001
endloop
endfacet
facet normal 0 0 1
outer loop
vertex 37.5 -12.86666666666666 1.200000000000001
vertex 37.5 -0.3999999999999915 1.200000000000001
vertex -37.5 -0.3999999999999915 1.200000000000001
endloop
endfacet
facet normal 0 0 1
outer loop
vertex 37.5 -12.86666666666666 1.200000000000001
vertex -37.5 -0.3999999999999915 1.200000000000001
vertex -37.5 -12.86666666666666 1.200000000000001
endloop
endfacet
facet normal 0 0 1
outer loop
vertex 37.5 0.4000000000000057 1.200000000000001
vertex 37.5 12.866666666666674 1.200000000000001
vertex -37.5 12.866666666666674 1.200000000000001
endloop
endfacet
facet normal 0 0 1
outer loop
vertex 37.5 0.4000000000000057 1.200000000000001
vertex -37.5 12.866666666666674 1.200000000000001
vertex -37.5 0.4000000000000057 1.200000000000001
endloop
endfacet
facet normal 0 0 1
outer loop
vertex 37.5 13.666666666666671 1.200000000000001
vertex 37.5 26.13333333333334 1.200000000000001
vertex -37.5 26.13333333333334 1.200000000000001
endloop
endfacet
facet normal 0 0 1
outer loop
vertex 37.5 13.666666666666671 1.200000000000001
vertex -37.5 26.13333333333334 1.200000000000001
vertex -37.5 13.666666666666671 1.200000000000001
endloop
endfacet
facet normal 0 0 1
outer loop
vertex 37.5 26.933333333333337 1.200000000000001
vertex 37.5 39.400000000000006 1.200000000000001
vertex -37.5 39.400000000000006 1.200000000000001
endloop
endfacet
facet normal 0 0 1
outer loop
vertex 37.5 26.933333333333337 1.200000000000001
vertex -37.5 39.400000000000006 1.200000000000001
vertex -37.5 26.933333333333337 1.200000000000001
endloop
endfacet
facet normal 0 0 1
outer loop
vertex 37.5 40.2 1.200000000000001
vertex 37.5 52.66666666666667 1.200000000000001
vertex -37.5 52.66666666666667 1.200000000000001
endloop
endfacet
facet normal 0 0 1
outer loop
vertex 37.5 40.2 1.200000000000001
vertex -37.5 52.66666666666667 1.200000000000001
vertex -37.5 40.2 1.200000000000001
endloop
endfacet
facet normal 0 0 1
outer loop
vertex 37.5 53.46666666666667 1.200000000000001
vertex 37.5 65.93333333333334 1.200000000000001
vertex -37.5 65.93333333333334 1.200000000000001
endloop
endfacet
facet normal 0 0 1
outer loop
vertex 37.5 53.46666666666667 1.200000000000001
vertex -37.5 65.93333333333334 1.200000000000001
vertex -37.5 53.46666666666667 1.200000000000001
endloop
endfacet
facet normal 0 0 1
outer loop
vertex 37.5 66.73333333333333 1.200000000000001
vertex 37.5 79.2 1.200000000000001
vertex -37.5 79.2 1.200000000000001
endloop
endfacet
facet normal 0 0 1
outer loop
vertex 37.5 66.73333333333333 1.200000000000001
vertex -37.5 79.2 1.200000000000001
vertex -37.5 66.73333333333333 1.200000000000001
endloop
endfacet
facet normal 1 0 0
outer loop
vertex -37.5 -66.73333333333332 1.200000000000001
vertex -37.5 -66.73333333333332 23.8
vertex -37.5 -79.19999999999999 23.8
endloop
endfacet
facet normal 1 0 0
outer loop
vertex -37.5 -66.73333333333332 1.200000000000001
vertex -37.5 -79.19999999999999 23.8
vertex -37.5 -79.19999999999999 1.200000000000001
endloop
endfacet
facet normal 1 0 0
outer loop
vertex -37.5 -53.466666666666654 1.200000000000001
vertex -37.5 -53.466666666666654 23.8
vertex -37.5 -65.93333333333332 23.8
endloop
endfacet
facet normal 1 0 0
outer loop
vertex -37.5 -53.466666666666654 1.200000000000001
vertex -37.5 -65.93333333333332 23.8
vertex -37.5 -65.93333333333332 1.200000000000001
endloop
endfacet
facet normal 1 0 0
outer loop
vertex -37.5 -40.19999999999999 1.200000000000001
vertex -37.5 -40.19999999999999 23.8
vertex -37.5 -52.66666666666666 23.8
endloop
endfacet
facet normal 1 0 0
outer loop
vertex -37.5 -40.19999999999999 1.200000000000001
vertex -37.5 -52.66666666666666 23.8
vertex -37.5 -52.66666666666666 1.200000000000001
endloop
endfacet
facet normal 1 0 0
outer loop
vertex -37.5 -26.933333333333323 1.200000000000001
vertex -37.5 -26.933333333333323 23.8
vertex -37.5 -39.39999999999999 23.8
endloop
endfacet
facet normal 1 0 0
outer loop
vertex -37.5 -26.933333333333323 1.200000000000001
vertex -37.5 -39.39999999999999 23.8
vertex -37.5 -39.39999999999999 1.200000000000001
endloop
endfacet
facet normal 1 0 0
outer loop
vertex -37.5 -13.666666666666657 1.200000000000001
vertex -37.5 -13.666666666666657 23.8
vertex -37.5 -26.133333333333326 23.8
endloop
endfacet
facet normal 1 0 0
outer loop
vertex -37.5 -13.666666666666657 1.200000000000001
vertex -37.5 -26.133333333333326 23.8
vertex -37.5 -26.133333333333326 1.200000000000001
endloop
endfacet
facet normal 1 0 0
outer loop
vertex -37.5 -0.3999999999999915 1.200000000000001
vertex -37.5 -0.3999999999999915 23.8
vertex -37.5 -12.86666666666666 23.8
endloop
endfacet
facet normal 1 0 0
outer loop
vertex -37.5 -0.3999999999999915 1.200000000000001
vertex -37.5 -12.86666666666666 23.8
vertex -37.5 -12.86666666666666 1.200000000000001
endloop
endfacet
facet normal 1 0 0
outer loop
vertex -37.5 12.866666666666674 1.200000000000001
vertex -37.5 12.866666666666674 23.8
vertex -37.5 0.4000000000000057 23.8
endloop
endfacet
facet normal 1 0 0
outer loop
vertex -37.5 12.866666666666674 1.200000000000001
vertex -37.5 0.4000000000000057 23.8
vertex -37.5 0.4000000000000057 1.200000000000001
endloop
endfacet
facet normal 1 0 0
outer loop
vertex -37.5 26.13333333333334 1.200000000000001
vertex -37.5 26.13333333333334 23.8
vertex -37.5 13.666666666666671 23.8
endloop
endfacet
facet normal 1 0 0
outer loop
vertex -37.5 26.13333333333334 1.200000000000001
vertex -37.5 13.666666666666671 23.8
vertex -37.5 13.666666666666671 1.200000000000001
endloop
endfacet
facet normal 1 0 0
outer loop
vertex -37.5 39.400000000000006 1.200000000000001
vertex -37.5 39.400000000000006 23.8
vertex -37.5 26.933333333333337 23.8
endloop
endfacet
facet normal 1 0 0
outer loop
vertex -37.5 39.400000000000006 1.200000000000001
vertex -37.5 26.933333333333337 23.8
vertex -37.5 26.933333333333337 1.200000000000001
endloop
endfacet
facet normal 1 0 0
outer loop
vertex -37.5 52.66666666666667 1.200000000000001
vertex -37.5 52.66666666666667 23.8
vertex -37.5 40.2 23.8
endloop
endfacet
facet normal 1 0 0
outer loop
vertex -37.5 52.66666666666667 1.200000000000001
vertex -37.5 40.2 23.8
vertex -37.5 40.2 1.200000000000001
endloop
endfacet
facet normal 1 0 0
outer loop
vertex -37.5 65.93333333333334 1.200000000000001
vertex -37.5 65.93333333333334 23.8
vertex -37.5 53.46666666666667 23.8
endloop
endfacet
facet normal 1 0 0
outer loop
vertex -37.5 65.93333333333334 1.200000000000001
vertex -37.5 53.46666666666667 23.8
vertex -37.5 53.46666666666667 1.200000000000001
endloop
endfacet
facet normal 1 0 0
outer loop
vertex -37.5 79.2 1.200000000000001
vertex -37.5 79.2 23.8
vertex -37.5 66.73333333333333 23.8
endloop
endfacet
facet normal 1 0 0
outer loop
vertex -37.5 79.2 1.200000000000001
vertex -37.5 66.73333333333333 23.8
vertex -37.5 66.73333333333333 1.200000000000001
endloop
endfacet
facet normal -1 0 0
outer loop
vertex 37.5 -66.73333333333332 23.8
vertex 37.5 -66.73333333333332 1.200000000000001
vertex 37.5 -79.19999999999999 1.200000000000001
endloop
endfacet
facet normal -1 0 0
outer loop
vertex 37.5 -66.73333333333332 23.8
vertex 37.5 -79.19999999999999 1.200000000000001
vertex 37.5 -79.19999999999999 23.8
endloop
endfacet
facet normal -1 0 0
outer loop
vertex 37.5 -53.466666666666654 23.8
vertex 37.5 -53.466666666666654 1.200000000000001
vertex 37.5 -65.93333333333332 1.200000000000001
endloop
endfacet
facet normal -1 0 0
outer loop
vertex 37.5 -53.466666666666654 23.8
vertex 37.5 -65.93333333333332 1.200000000000001
vertex 37.5 -65.93333333333332 23.8
endloop
endfacet
facet normal -1 0 0
outer loop
vertex 37.5 -40.19999999999999 23.8
vertex 37.5 -40.19999999999999 1.200000000000001
vertex 37.5 -52.66666666666666 1.200000000000001
endloop
endfacet
facet normal -1 0 0
outer loop
vertex 37.5 -40.19999999999999 23.8
vertex 37.5 -52.66666666666666 1.200000000000001
vertex 37.5 -52.66666666666666 23.8
endloop
endfacet
facet normal -1 0 0
outer loop
vertex 37.5 -26.933333333333323 23.8
vertex 37.5 -26.933333333333323 1.200000000000001
vertex 37.5 -39.39999999999999 1.200000000000001
endloop
endfacet
facet normal -1 0 0
outer loop
vertex 37.5 -26.933333333333323 23.8
vertex 37.5 -39.39999999999999 1.200000000000001
vertex 37.5 -39.39999999999999 23.8
endloop
endfacet
facet normal -1 0 0
outer loop
vertex 37.5 -13.666666666666657 23.8
vertex 37.5 -13.666666666666657 1.200000000000001
vertex 37.5 -26.133333333333326 1.200000000000001
endloop
endfacet
facet normal -1 0 0
outer loop
vertex 37.5 -13.666666666666657 23.8
vertex 37.5 -26.133333333333326 1.200000000000001
vertex 37.5 -26.133333333333326 23.8
endloop
endfacet
facet normal -1 0 0
outer loop
vertex 37.5 -0.3999999999999915 23.8
vertex 37.5 -0.3999999999999915 1.200000000000001
vertex 37.5 -12.86666666666666 1.200000000000001
endloop
endfacet
facet normal -1 0 0
outer loop
vertex 37.5 -0.3999999999999915 23.8
vertex 37.5 -12.86666666666666 1.200000000000001
vertex 37.5 -12.86666666666666 23.8
endloop
endfacet
facet normal -1 0 0
outer loop
vertex 37.5 12.866666666666674 23.8
vertex 37.5 12.866666666666674 1.200000000000001
vertex 37.5 0.4000000000000057 1.200000000000001
endloop
endfacet
facet normal -1 0 0
outer loop
vertex 37.5 12.866666666666674 23.8
vertex 37.5 0.4000000000000057 1.200000000000001
vertex 37.5 0.4000000000000057 23.8
endloop
endfacet
facet normal -1 0 0
outer loop
vertex 37.5 26.13333333333334 23.8
vertex 37.5 26.13333333333334 1.200000000000001
vertex 37.5 13.666666666666671 1.200000000000001
endloop
endfacet
facet normal -1 0 0
outer loop
vertex 37.5 26.13333333333334 23.8
vertex 37.5 13.666666666666671 1.200000000000001
vertex 37.5 13.666666666666671 23.8
endloop
endfacet
facet normal -1 0 0
outer loop
vertex 37.5 39.400000000000006 23.8
vertex 37.5 39.400000000000006 1.200000000000001
vertex 37.5 26.933333333333337 1.200000000000001
endloop
endfacet
facet normal -1 0 0
outer loop
vertex 37.5 39.400000000000006 23.8
vertex 37.5 26.933333333333337 1.200000000000001
vertex 37.5 26.933333333333337 23.8
endloop
endfacet
facet normal -1 0 0
outer loop
vertex 37.5 52.66666666666667 23.8
vertex 37.5 52.66666666666667 1.200000000000001
vertex 37.5 40.2 1.200000000000001
endloop
endfacet
facet normal -1 0 0
outer loop
vertex 37.5 52.66666666666667 23.8
vertex 37.5 40.2 1.200000000000001
vertex 37.5 40.2 23.8
endloop
endfacet
facet normal -1 0 0
outer loop
vertex 37.5 65.93333333333334 23.8
vertex 37.5 65.93333333333334 1.200000000000001
vertex 37.5 53.46666666666667 1.200000000000001
endloop
endfacet
facet normal -1 0 0
outer loop
vertex 37.5 65.93333333333334 23.8
vertex 37.5 53.46666666666667 1.200000000000001
vertex 37.5 53.46666666666667 23.8
endloop
endfacet
facet normal -1 0 0
outer loop
vertex 37.5 79.2 23.8
vertex 37.5 79.2 1.200000000000001
vertex 37.5 66.73333333333333 1.200000000000001
endloop
endfacet
facet normal -1 0 0
outer loop
vertex 37.5 79.2 23.8
vertex 37.5 66.73333333333333 1.200000000000001
vertex 37.5 66.73333333333333 23.8
endloop
endfacet
facet normal 0 1 0
outer loop
vertex -37.5 66.73333333333333 23.8
vertex 37.5 66.73333333333333 23.8
vertex 37.5 66.73333333333333 1.200000000000001
endloop
endfacet
facet normal 0 1 0
outer loop
vertex -37.5 66.73333333333333 23.8
vertex 37.5 66.73333333333333 1.200000000000001
vertex -37.5 66.73333333333333 1.200000000000001
endloop
endfacet
facet normal 0 -1 0
outer loop
vertex 37.5 79.2 1.200000000000001
vertex 37.5 79.2 23.8
vertex -37.5 79.2 23.8
endloop
endfacet
facet normal 0 -1 0
outer loop
vertex 37.5 79.2 1.200000000000001
vertex -37.5 79.2 23.8
vertex -37.5 79.2 1.200000000000001
endloop
endfacet
facet normal 0 1 0
outer loop
vertex -37.5 53.46666666666667 23.8
vertex 37.5 53.46666666666667 23.8
vertex 37.5 53.46666666666667 1.200000000000001
endloop
endfacet
facet normal 0 1 0
outer loop
vertex -37.5 53.46666666666667 23.8
vertex 37.5 53.46666666666667 1.200000000000001
vertex -37.5 53.46666666666667 1.200000000000001
endloop
endfacet
facet normal 0 -1 0
outer loop
vertex 37.5 65.93333333333334 1.200000000000001
vertex 37.5 65.93333333333334 23.8
vertex -37.5 65.93333333333334 23.8
endloop
endfacet
facet normal 0 -1 0
outer loop
vertex 37.5 65.93333333333334 1.200000000000001
vertex -37.5 65.93333333333334 23.8
vertex -37.5 65.93333333333334 1.200000000000001
endloop
endfacet
facet normal 0 1 0
outer loop
vertex -37.5 40.2 23.8
vertex 37.5 40.2 23.8
vertex 37.5 40.2 1.200000000000001
endloop
endfacet
facet normal 0 1 0
outer loop
vertex -37.5 40.2 23.8
vertex 37.5 40.2 1.200000000000001
vertex -37.5 40.2 1.200000000000001
endloop
endfacet
facet normal 0 -1 0
outer loop
vertex 37.5 52.66666666666667 1.200000000000001
vertex 37.5 52.66666666666667 23.8
vertex -37.5 52.66666666666667 23.8
endloop
endfacet
facet normal 0 -1 0
outer loop
vertex 37.5 52.66666666666667 1.200000000000001
vertex -37.5 52.66666666666667 23.8
vertex -37.5 52.66666666666667 1.200000000000001
endloop
endfacet
facet normal 0 1 0
outer loop
vertex -37.5 26.933333333333337 23.8
vertex 37.5 26.933333333333337 23.8
vertex 37.5 26.933333333333337 1.200000000000001
endloop
endfacet
facet normal 0 1 0
outer loop
vertex -37.5 26.933333333333337 23.8
vertex 37.5 26.933333333333337 1.200000000000001
vertex -37.5 26.933333333333337 1.200000000000001
endloop
endfacet
facet normal 0 -1 0
outer loop
vertex 37.5 39.400000000000006 1.200000000000001
vertex 37.5 39.400000000000006 23.8
vertex -37.5 39.400000000000006 23.8
endloop
endfacet
facet normal 0 -1 0
outer loop
vertex 37.5 39.400000000000006 1.200000000000001
vertex -37.5 39.400000000000006 23.8
vertex -37.5 39.400000000000006 1.200000000000001
endloop
endfacet
facet normal 0 1 0
outer loop
vertex -37.5 13.666666666666671 23.8
vertex 37.5 13.666666666666671 23.8
vertex 37.5 13.666666666666671 1.200000000000001
endloop
endfacet
facet normal 0 1 0
outer loop
vertex -37.5 13.666666666666671 23.8
vertex 37.5 13.666666666666671 1.200000000000001
vertex -37.5 13.666666666666671 1.200000000000001
endloop
endfacet
facet normal 0 -1 0
outer loop
vertex 37.5 26.13333333333334 1.200000000000001
vertex 37.5 26.13333333333334 23.8
vertex -37.5 26.13333333333334 23.8
endloop
endfacet
facet normal 0 -1 0
outer loop
vertex 37.5 26.13333333333334 1.200000000000001
vertex -37.5 26.13333333333334 23.8
vertex -37.5 26.13333333333334 1.200000000000001
endloop
endfacet
facet normal 0 1 0
outer loop
vertex -37.5 0.4000000000000057 23.8
vertex 37.5 0.4000000000000057 23.8
vertex 37.5 0.4000000000000057 1.200000000000001
endloop
endfacet
facet normal 0 1 0
outer loop
vertex -37.5 0.4000000000000057 23.8
vertex 37.5 0.4000000000000057 1.200000000000001
vertex -37.5 0.4000000000000057 1.200000000000001
endloop
endfacet
facet normal 0 -1 0
outer loop
vertex 37.5 12.866666666666674 1.200000000000001
vertex 37.5 12.866666666666674 23.8
vertex -37.5 12.866666666666674 23.8
endloop
endfacet
facet normal 0 -1 0
outer loop
vertex 37.5 12.866666666666674 1.200000000000001
vertex -37.5 12.866666666666674 23.8
vertex -37.5 12.866666666666674 1.200000000000001
endloop
endfacet
facet normal 0 1 0
outer loop
vertex -37.5 -12.86666666666666 23.8
vertex 37.5 -12.86666666666666 23.8
vertex 37.5 -12.86666666666666 1.200000000000001
endloop
endfacet
facet normal 0 1 0
outer loop
vertex -37.5 -12.86666666666666 23.8
vertex 37.5 -12.86666666666666 1.200000000000001
vertex -37.5 -12.86666666666666 1.200000000000001
endloop
endfacet
facet normal 0 -1 0
outer loop
vertex 37.5 -0.3999999999999915 1.200000000000001
vertex 37.5 -0.3999999999999915 23.8
vertex -37.5 -0.3999999999999915 23.8
endloop
endfacet
facet normal 0 -1 0
outer loop
vertex 37.5 -0.3999999999999915 1.200000000000001
vertex -37.5 -0.3999999999999915 23.8
vertex -37.5 -0.3999999999999915 1.200000000000001
endloop
endfacet
facet normal 0 1 0
outer loop
vertex -37.5 -26.133333333333326 23.8
vertex 37.5 -26.133333333333326 23.8
vertex 37.5 -26.133333333333326 1.200000000000001
endloop
endfacet
facet normal 0 1 0
outer loop
vertex -37.5 -26.133333333333326 23.8
vertex 37.5 -26.133333333333326 1.200000000000001
vertex -37.5 -26.133333333333326 1.200000000000001
endloop
endfacet
facet normal 0 -1 0
outer loop
vertex 37.5 -13.666666666666657 1.200000000000001
vertex 37.5 -13.666666666666657 23.8
vertex -37.5 -13.666666666666657 23.8
endloop
endfacet
facet normal 0 -1 0
outer loop
vertex 37.5 -13.666666666666657 1.200000000000001
vertex -37.5 -13.666666666666657 23.8
vertex -37.5 -13.666666666666657 1.200000000000001
endloop
endfacet
facet normal 0 1 0
outer loop
vertex -37.5 -39.39999999999999 23.8
vertex 37.5 -39.39999999999999 23.8
vertex 37.5 -39.39999999999999 1.200000000000001
endloop
endfacet
facet normal 0 1 0
outer loop
vertex -37.5 -39.39999999999999 23.8
vertex 37.5 -39.39999999999999 1.200000000000001
vertex -37.5 -39.39999999999999 1.200000000000001
endloop
endfacet
facet normal 0 -1 0
outer loop
vertex 37.5 -26.933333333333323 1.200000000000001
vertex 37.5 -26.933333333333323 23.8
vertex -37.5 -26.933333333333323 23.8
endloop
endfacet
facet normal 0 -1 0
outer loop
vertex 37.5 -26.933333333333323 1.200000000000001
vertex -37.5 -26.933333333333323 23.8
vertex -37.5 -26.933333333333323 1.200000000000001
endloop
endfacet
facet normal 0 1 0
outer loop
vertex -37.5 -52.66666666666666 23.8
vertex 37.5 -52.66666666666666 23.8
vertex 37.5 -52.66666666666666 1.200000000000001
endloop
endfacet
facet normal 0 1 0
outer loop
vertex -37.5 -52.66666666666666 23.8
vertex 37.5 -52.66666666666666 1.200000000000001
vertex -37.5 -52.66666666666666 1.200000000000001
endloop
endfacet
facet normal 0 -1 0
outer loop
vertex 37.5 -40.19999999999999 1.200000000000001
vertex 37.5 -40.19999999999999 23.8
vertex -37.5 -40.19999999999999 23.8
endloop
endfacet
facet normal 0 -1 0
outer loop
vertex 37.5 -40.19999999999999 1.200000000000001
vertex -37.5 -40.19999999999999 23.8
vertex -37.5 -40.19999999999999 1.200000000000001
endloop
endfacet
facet normal 0 1 0
outer loop
vertex -37.5 -65.93333333333332 23.8
vertex 37.5 -65.93333333333332 23.8
vertex 37.5 -65.93333333333332 1.200000000000001
endloop
endfacet
facet normal 0 1 0
outer loop
vertex -37.5 -65.93333333333332 23.8
vertex 37.5 -65.93333333333332 1.200000000000001
vertex -37.5 -65.93333333333332 1.200000000000001
endloop
endfacet
facet normal 0 -1 0
outer loop
vertex 37.5 -53.466666666666654 1.200000000000001
vertex 37.5 -53.466666666666654 23.8
vertex -37.5 -53.466666666666654 23.8
endloop
endfacet
facet normal 0 -1 0
outer loop
vertex 37.5 -53.466666666666654 1.200000000000001
vertex -37.5 -53.466666666666654 23.8
vertex -37.5 -53.466666666666654 1.200000000000001
endloop
endfacet
facet normal 0 1 0
outer loop
vertex -37.5 -79.19999999999999 23.8
vertex 37.5 -79.19999999999999 23.8
vertex 37.5 -79.19999999999999 1.200000000000001
endloop
endfacet
facet normal 0 1 0
outer loop
vertex -37.5 -79.19999999999999 23.8
vertex 37.5 -79.19999999999999 1.200000000000001
vertex -37.5 -79.19999999999999 1.200000000000001
endloop
endfacet
facet normal 0 -1 0
outer loop
vertex 37.5 -66.73333333333332 1.200000000000001
vertex 37.5 -66.73333333333332 23.8
vertex -37.5 -66.73333333333332 23.8
endloop
endfacet
facet normal 0 -1 0
outer loop
vertex 37.5 -66.73333333333332 1.200000000000001
vertex -37.5 -66.73333333333332 23.8
vertex -37.5 -66.73333333333332 1.200000000000001
endloop
endfacet
facet normal 0 -1 0
outer loop
vertex -34.3 -80 0
vertex -34.3 -80 23.8
vertex -38.3 -80 23.8
endloop
endfacet
facet normal 0 -1 0
outer loop
vertex -34.3 -80 0
vertex -38.3 -80 23.8
vertex -38.3 -80 0
endloop
endfacet
facet normal 0 -1 0
outer loop
vertex 32.8 -80 2
vertex 32.8 -80 23.8
vertex -32.8 -80 23.8
endloop
endfacet
facet normal 0 -1 0
outer loop
vertex 32.8 -80 2
vertex -32.8 -80 23.8
vertex -32.8 -80 2
endloop
endfacet
facet normal 0 -1 0
outer loop
vertex 38.3 -80 0
vertex 38.3 -80 23.8
vertex 34.3 -80 23.8
endloop
endfacet
facet normal 0 -1 0
outer loop
vertex 38.3 -80 0
vertex 34.3 -80 23.8
vertex 34.3 -80 0
endloop
endfacet
facet normal -0.09801714032956006 -0.9951847266721969 0
outer loop
vertex -2.9999999999999996 -89.4 5
vertex -3.195090322016129 -89.38078528040323 5
vertex -3.195090322016129 -89.38078528040323 0
endloop
endfacet
facet normal -0.09801714032956006 -0.9951847266721969 0
outer loop
vertex -2.9999999999999996 -89.4 5
vertex -3.195090322016129 -89.38078528040323 0
vertex -2.9999999999999996 -89.4 0
endloop
endfacet
facet normal 0 -1 0
outer loop
vertex 3 -89.4 0
vertex 3 -89.4 5
vertex -2.9999999999999996 -89.4 5
endloop
endfacet
facet normal 0 -1 0
outer loop
vertex 3 -89.4 0
vertex -2.9999999999999996 -89.4 5
vertex -2.9999999999999996 -89.4 0
endloop
endfacet
facet normal 0.09801714032955997 -0.9951847266721969 0
outer loop
vertex 3.195090322016129 -89.38078528040323 5.000000000000001
vertex 3 -89.4 5
vertex 3 -89.4 0
endloop
endfacet
facet normal 0.09801714032955997 -0.9951847266721969 0
outer loop
vertex 3.195090322016129 -89.38078528040323 5.000000000000001
vertex 3 -89.4 0
vertex 3.195090322016129 -89.38078528040323 0
endloop
endfacet
facet normal 0.29028467725446194 -0.956940335732209 0
outer loop
vertex 3.3826834323650905 -89.3238795325113 5
vertex 3.195090322016129 -89.38078528040323 5.000000000000001
vertex 3.195090322016129 -89.38078528040323 0
endloop
endfacet
facet normal 0.29028467725446194 -0.956940335732209 0
outer loop
vertex 3.3826834323650905 -89.3238795325113 5
vertex 3.195090322016129 -89.38078528040323 0
vertex 3.3826834323650905 -89.3238795325113 0
endloop
endfacet
facet normal 0.4713967368259944 -0.8819212643483568 0
outer loop
vertex 3.555570233019602 -89.23146961230255 5
vertex 3.3826834323650905 -89.3238795325113 5
vertex 3.3826834323650905 -89.3238795325113 0
endloop
endfacet
facet normal 0.4713967368259944 -0.8819212643483568 0
outer loop
vertex 3.555570233019602 -89.23146961230255 5
vertex 3.3826834323650905 -89.3238795325113 0
vertex 3.555570233019602 -89.23146961230255 0
endloop
endfacet
facet normal 0.6343932841636364 -0.7730104533627445 0
outer loop
vertex 3.7071067811865483 -89.10710678118656 5.000000000000001
vertex 3.555570233019602 -89.23146961230255 5
vertex 3.555570233019602 -89.23146961230255 0
endloop
endfacet
facet normal 0.6343932841636364 -0.7730104533627445 0
outer loop
vertex 3.7071067811865483 -89.10710678118656 5.000000000000001
vertex 3.555570233019602 -89.23146961230255 0
vertex 3.7071067811865483 -89.10710678118656 0
endloop
endfacet
facet normal 0.7730104533627347 -0.6343932841636484 0
outer loop
vertex 3.8314696123025467 -88.95557023301961 5.000000000000001
vertex 3.7071067811865483 -89.10710678118656 5.000000000000001
vertex 3.7071067811865483 -89.10710678118656 0
endloop
endfacet
facet normal 0.7730104533627347 -0.6343932841636484 0
outer loop
vertex 3.8314696123025467 -88.95557023301961 5.000000000000001
vertex 3.7071067811865483 -89.10710678118656 0
vertex 3.8314696123025467 -88.95557023301961 0
endloop
endfacet
facet normal 0.8819212643483568 -0.4713967368259944 0
outer loop
vertex 3.923879532511288 -88.7826834323651 5
vertex 3.8314696123025467 -88.95557023301961 5.000000000000001
vertex 3.8314696123025467 -88.95557023301961 0
endloop
endfacet
facet normal 0.8819212643483568 -0.4713967368259944 0
outer loop
vertex 3.923879532511288 -88.7826834323651 5
vertex 3.8314696123025467 -88.95557023301961 0
vertex 3.923879532511288 -88.7826834323651 0
endloop
endfacet
facet normal 0.956940335732209 -0.29028467725446194 0
outer loop
vertex 3.9807852804032304 -88.59509032201613 5
vertex 3.923879532511288 -88.7826834323651 5
vertex 3.923879532511288 -88.7826834323651 0
endloop
endfacet
facet normal 0.956940335732209 -0.29028467725446194 0
outer loop
vertex 3.9807852804032304 -88.59509032201613 5
vertex 3.923879532511288 -88.7826834323651 0
vertex 3.9807852804032304 -88.59509032201613 0
endloop
endfacet
facet normal 0.8819212643483606 0.47139673682598743 0
outer loop
vertex 3.9955557023301966 -81.40168530387697 5.000000000000001
vertex 4.000000000000001 -81.41000000000001 5.000000000000001
vertex 4.000000000000001 -81.41000000000001 0
endloop
endfacet
facet normal 0.8819212643483606 0.47139673682598743 0
outer loop
vertex 3.9955557023301966 -81.40168530387697 5.000000000000001
vertex 4.000000000000001 -81.41000000000001 0
vertex 3.9955557023301966 -81.40168530387697 0
endloop
endfacet
facet normal 0.09801714032955997 0.9951847266721969 0
outer loop
vertex 3.98617316567635 -81.4007612046749 5.000000000000001
vertex 3.9955557023301966 -81.40168530387697 5.000000000000001
vertex 3.9955557023301966 -81.40168530387697 0
endloop
endfacet
facet normal 0.09801714032955997 0.9951847266721969 0
outer loop
vertex 3.98617316567635 -81.4007612046749 5.000000000000001
vertex 3.9955557023301966 -81.40168530387697 0
vertex 3.98617316567635 -81.4007612046749 0
endloop
endfacet
facet normal 0.00009543482264007253 0.9999999954460973 0
outer loop
vertex -3.990000000000001 -81.4 5.000000000000001
vertex 3.98617316567635 -81.4007612046749 5.000000000000001
vertex 3.98617316567635 -81.4007612046749 0
endloop
endfacet
facet normal 0.00009543482264007253 0.9999999954460973 0
outer loop
vertex -3.990000000000001 -81.4 5.000000000000001
vertex 3.98617316567635 -81.4007612046749 0
vertex -3.990000000000001 -81.4 0
endloop
endfacet
facet normal -0.47139673682598043 0.8819212643483643 0
outer loop
vertex -3.9983146961230265 -81.40444429766981 5.000000000000001
vertex -3.990000000000001 -81.4 5.000000000000001
vertex -3.990000000000001 -81.4 0
endloop
endfacet
facet normal -0.47139673682598043 0.8819212643483643 0
outer loop
vertex -3.9983146961230265 -81.40444429766981 5.000000000000001
vertex -3.990000000000001 -81.4 0
vertex -3.9983146961230265 -81.40444429766981 0
endloop
endfacet
facet normal -0.9807852804032309 0.1950903220161262 0
outer loop
vertex -3.999807852804032 -81.41195090322017 5
vertex -3.9983146961230265 -81.40444429766981 5.000000000000001
vertex -3.9983146961230265 -81.40444429766981 0
endloop
endfacet
facet normal -0.9807852804032309 0.1950903220161262 0
outer loop
vertex -3.999807852804032 -81.41195090322017 5
vertex -3.9983146961230265 -81.40444429766981 0
vertex -3.999807852804032 -81.41195090322017 0
endloop
endfacet
facet normal -0.956940335732209 -0.29028467725446194 0
outer loop
vertex -3.9238795325112883 -88.78268343236509 5.000000000000001
vertex -3.98078528040323 -88.59509032201613 5.000000000000001
vertex -3.98078528040323 -88.59509032201613 0
endloop
endfacet
facet normal -0.956940335732209 -0.29028467725446194 0
outer loop
vertex -3.9238795325112883 -88.78268343236509 5.000000000000001
vertex -3.98078528040323 -88.59509032201613 0
vertex -3.9238795325112883 -88.7826834323651 0
endloop
endfacet
facet normal -0.8819212643483529 -0.47139673682600136 0
outer loop
vertex -3.831469612302545 -88.95557023301961 5
vertex -3.9238795325112883 -88.78268343236509 5.000000000000001
vertex -3.9238795325112883 -88.7826834323651 0
endloop
endfacet
facet normal -0.8819212643483529 -0.47139673682600136 0
outer loop
vertex -3.831469612302545 -88.95557023301961 5
vertex -3.9238795325112883 -88.7826834323651 0
vertex -3.831469612302545 -88.95557023301961 0
endloop
endfacet
facet normal -0.7730104533627382 -0.6343932841636442 0
outer loop
vertex -3.7071067811865475 -89.10710678118656 5.000000000000001
vertex -3.831469612302545 -88.95557023301961 5
vertex -3.831469612302545 -88.95557023301961 0
endloop
endfacet
facet normal -0.7730104533627382 -0.6343932841636442 0
outer loop
vertex -3.7071067811865475 -89.10710678118656 5.000000000000001
vertex -3.831469612302545 -88.95557023301961 0
vertex -3.7071067811865475 -89.10710678118656 0
endloop
endfacet
facet normal -0.6343932841636406 -0.7730104533627411 0
outer loop
vertex -3.5555702330196035 -89.23146961230255 5.000000000000001
vertex -3.7071067811865475 -89.10710678118656 5.000000000000001
vertex -3.7071067811865475 -89.10710678118656 0
endloop
endfacet
facet normal -0.6343932841636406 -0.7730104533627411 0
outer loop
vertex -3.5555702330196035 -89.23146961230255 5.000000000000001
vertex -3.7071067811865475 -89.10710678118656 0
vertex -3.5555702330196035 -89.23146961230255 0
endloop
endfacet
facet normal -0.4713967368259944 -0.8819212643483568 0
outer loop
vertex -3.3826834323650914 -89.3238795325113 5
vertex -3.5555702330196035 -89.23146961230255 5.000000000000001
vertex -3.5555702330196035 -89.23146961230255 0
endloop
endfacet
facet normal -0.4713967368259944 -0.8819212643483568 0
outer loop
vertex -3.3826834323650914 -89.3238795325113 5
vertex -3.5555702330196035 -89.23146961230255 0
vertex -3.3826834323650914 -89.3238795325113 0
endloop
endfacet
facet normal -0.29028467725446194 -0.956940335732209 0
outer loop
vertex -3.195090322016129 -89.38078528040323 5
vertex -3.3826834323650914 -89.3238795325113 5
vertex -3.3826834323650914 -89.3238795325113 0
endloop
endfacet
facet normal -0.29028467725446194 -0.956940335732209 0
outer loop
vertex -3.195090322016129 -89.38078528040323 5
vertex -3.3826834323650914 -89.3238795325113 0
vertex -3.195090322016129 -89.38078528040323 0
endloop
endfacet
facet normal 0.7730104533627382 0.6343932841636442 0
outer loop
vertex 3.234121550789819 -87.62228093207841 5
vertex 3.7315728752538107 -88.22842712474619 5
vertex 3.7315728752538107 -88.22842712474619 0
endloop
endfacet
facet normal 0.7730104533627382 0.6343932841636442 0
outer loop
vertex 3.234121550789819 -87.62228093207841 5
vertex 3.7315728752538107 -88.22842712474619 0
vertex 3.234121550789819 -87.62228093207841 0
endloop
endfacet
facet normal 0.8819212643483529 0.47139673682600136 0
outer loop
vertex 2.8644818699548535 -86.93073372946037 5
vertex 3.234121550789819 -87.62228093207841 5
vertex 3.234121550789819 -87.62228093207841 0
endloop
endfacet
facet normal 0.8819212643483529 0.47139673682600136 0
outer loop
vertex 2.8644818699548535 -86.93073372946037 5
vertex 3.234121550789819 -87.62228093207841 0
vertex 2.8644818699548535 -86.93073372946037 0
endloop
endfacet
facet normal 0.9569403357322089 0.29028467725446216 0
outer loop
vertex 2.6368588783870788 -86.18036128806452 5
vertex 2.8644818699548535 -86.93073372946037 5
vertex 2.8644818699548535 -86.93073372946037 0
endloop
endfacet
facet normal 0.9569403357322089 0.29028467725446216 0
outer loop
vertex 2.6368588783870788 -86.18036128806452 5
vertex 2.8644818699548535 -86.93073372946037 0
vertex 2.6368588783870788 -86.18036128806452 0
endloop
endfacet
facet normal 0.9951847266721969 0.09801714032955999 0
outer loop
vertex 2.5600000000000005 -85.4 5
vertex 2.6368588783870788 -86.18036128806452 5
vertex 2.6368588783870788 -86.18036128806452 0
endloop
endfacet
facet normal 0.9951847266721969 0.09801714032955999 0
outer loop
vertex 2.5600000000000005 -85.4 5
vertex 2.6368588783870788 -86.18036128806452 0
vertex 2.5600000000000005 -85.4 0
endloop
endfacet
facet normal 0.9951847266721968 -0.09801714032956178 0
outer loop
vertex 2.636858878387079 -84.6196387119355 5
vertex 2.5600000000000005 -85.4 5
vertex 2.5600000000000005 -85.4 0
endloop
endfacet
facet normal 0.9951847266721968 -0.09801714032956178 0
outer loop
vertex 2.636858878387079 -84.6196387119355 5
vertex 2.5600000000000005 -85.4 0
vertex 2.636858878387079 -84.6196387119355 0
endloop
endfacet
facet normal 0.9569403357322079 -0.29028467725446544 0
outer loop
vertex 2.8644818699548527 -83.86926627053965 5
vertex 2.636858878387079 -84.6196387119355 5
vertex 2.636858878387079 -84.6196387119355 0
endloop
endfacet
facet normal 0.9569403357322079 -0.29028467725446544 0
outer loop
vertex 2.8644818699548527 -83.86926627053965 5
vertex 2.636858878387079 -84.6196387119355 0
vertex 2.8644818699548527 -83.86926627053965 0
endloop
endfacet
facet normal 0.8819212643483568 -0.4713967368259944 0
outer loop
vertex 3.234121550789818 -83.1777190679216 5
vertex 2.8644818699548527 -83.86926627053965 5
vertex 2.8644818699548527 -83.86926627053965 0
endloop
endfacet
facet normal 0.8819212643483568 -0.4713967368259944 0
outer loop
vertex 3.234121550789818 -83.1777190679216 5
vertex 2.8644818699548527 -83.86926627053965 0
vertex 3.234121550789818 -83.1777190679216 0
endloop
endfacet
facet normal 0.7730104533627347 -0.6343932841636484 0
outer loop
vertex 3.7315728752538098 -82.57157287525382 5
vertex 3.234121550789818 -83.1777190679216 5
vertex 3.234121550789818 -83.1777190679216 0
endloop
endfacet
facet normal 0.7730104533627347 -0.6343932841636484 0
outer loop
vertex 3.7315728752538098 -82.57157287525382 5
vertex 3.234121550789818 -83.1777190679216 0
vertex 3.7315728752538098 -82.57157287525382 0
endloop
endfacet
facet normal 0.6343932841636484 -0.7730104533627347 0
outer loop
vertex 4 -82.3512804270915 5
vertex 3.7315728752538098 -82.57157287525382 5
vertex 3.7315728752538098 -82.57157287525382 0
endloop
endfacet
facet normal 0.6343932841636484 -0.7730104533627347 0
outer loop
vertex 4 -82.3512804270915 5
vertex 3.7315728752538098 -82.57157287525382 0
vertex 4 -82.3512804270915 0
endloop
endfacet
facet normal 0.6343932841636484 0.7730104533627347 0
outer loop
vertex 3.7315728752538107 -88.22842712474619 5
vertex 3.995560393430207 -88.44507608195705 5
vertex 3.9955603934302073 -88.44507608195705 0
endloop
endfacet
facet normal 0.6343932841636484 0.7730104533627347 0
outer loop
vertex 3.7315728752538107 -88.22842712474619 5
vertex 3.9955603934302073 -88.44507608195705 0
vertex 3.7315728752538107 -88.22842712474619 0
endloop
endfacet
facet normal 0.9951847266721969 -0.09801714032955997 0
outer loop
vertex 3.995560393430207 -88.44507608195705 5
vertex 3.9807852804032304 -88.59509032201613 5
vertex 3.9807852804032304 -88.59509032201613 0
endloop
endfacet
facet normal 0.9951847266721969 -0.09801714032955997 0
outer loop
vertex 3.995560393430207 -88.44507608195705 5
vertex 3.9807852804032304 -88.59509032201613 0
vertex 3.9955603934302073 -88.44507608195705 0
endloop
endfacet
facet normal 1 0 0
outer loop
vertex 4.000000000000001 -81.41000000000001 0
vertex 4.000000000000001 -81.41000000000001 5.000000000000001
vertex 4 -82.3512804270915 5
endloop
endfacet
facet normal 1 0 0
outer loop
vertex 4.000000000000001 -81.41000000000001 0
vertex 4 -82.3512804270915 5
vertex 4 -82.3512804270915 0
endloop
endfacet
facet normal -0.9951847266721968 0.09801714032956177 0
outer loop
vertex -2.6368588783870788 -86.18036128806452 5
vertex -2.5600000000000005 -85.4 5
vertex -2.5600000000000005 -85.4 0
endloop
endfacet
facet normal -0.9951847266721968 0.09801714032956177 0
outer loop
vertex -2.6368588783870788 -86.18036128806452 5
vertex -2.5600000000000005 -85.4 0
vertex -2.6368588783870788 -86.18036128806452 0
endloop
endfacet
facet normal -0.9569403357322079 0.29028467725446566 0
outer loop
vertex -2.8644818699548544 -86.93073372946037 5
vertex -2.6368588783870788 -86.18036128806452 5
vertex -2.6368588783870788 -86.18036128806452 0
endloop
endfacet
facet normal -0.9569403357322079 0.29028467725446566 0
outer loop
vertex -2.8644818699548544 -86.93073372946037 5
vertex -2.6368588783870788 -86.18036128806452 0
vertex -2.8644818699548544 -86.93073372946037 0
endloop
endfacet
facet normal -0.8819212643483568 0.4713967368259944 0
outer loop
vertex -3.234121550789819 -87.62228093207841 5
vertex -2.8644818699548544 -86.93073372946037 5
vertex -2.8644818699548544 -86.93073372946037 0
endloop
endfacet
facet normal -0.8819212643483568 0.4713967368259944 0
outer loop
vertex -3.234121550789819 -87.62228093207841 5
vertex -2.8644818699548544 -86.93073372946037 0
vertex -3.234121550789819 -87.62228093207841 0
endloop
endfacet
facet normal -0.7730104533627347 0.6343932841636484 0
outer loop
vertex -3.7315728752538107 -88.22842712474619 5
vertex -3.234121550789819 -87.62228093207841 5
vertex -3.234121550789819 -87.62228093207841 0
endloop
endfacet
facet normal -0.7730104533627347 0.6343932841636484 0
outer loop
vertex -3.7315728752538107 -88.22842712474619 5
vertex -3.234121550789819 -87.62228093207841 0
vertex -3.7315728752538107 -88.22842712474619 0
endloop
endfacet
facet normal -0.7730104533627382 -0.6343932841636442 0
outer loop
vertex -3.234121550789819 -83.1777190679216 5
vertex -3.7315728752538107 -82.57157287525382 5
vertex -3.7315728752538107 -82.57157287525382 0
endloop
endfacet
facet normal -0.7730104533627382 -0.6343932841636442 0
outer loop
vertex -3.234121550789819 -83.1777190679216 5
vertex -3.7315728752538107 -82.57157287525382 0
vertex -3.234121550789819 -83.1777190679216 0
endloop
endfacet
facet normal -0.8819212643483529 -0.47139673682600136 0
outer loop
vertex -2.8644818699548544 -83.86926627053964 5
vertex -3.234121550789819 -83.1777190679216 5
vertex -3.234121550789819 -83.1777190679216 0
endloop
endfacet
facet normal -0.8819212643483529 -0.47139673682600136 0
outer loop
vertex -2.8644818699548544 -83.86926627053964 5
vertex -3.234121550789819 -83.1777190679216 0
vertex -2.8644818699548544 -83.86926627053965 0
endloop
endfacet
facet normal -0.956940335732209 -0.29028467725446194 0
outer loop
vertex -2.6368588783870788 -84.6196387119355 5
vertex -2.8644818699548544 -83.86926627053964 5
vertex -2.8644818699548544 -83.86926627053965 0
endloop
endfacet
facet normal -0.956940335732209 -0.29028467725446194 0
outer loop
vertex -2.6368588783870788 -84.6196387119355 5
vertex -2.8644818699548544 -83.86926627053965 0
vertex -2.6368588783870788 -84.6196387119355 0
endloop
endfacet
facet normal -0.9951847266721969 -0.09801714032955999 0
outer loop
vertex -2.5600000000000005 -85.4 5
vertex -2.6368588783870788 -84.6196387119355 5
vertex -2.6368588783870788 -84.6196387119355 0
endloop
endfacet
facet normal -0.9951847266721969 -0.09801714032955999 0
outer loop
vertex -2.5600000000000005 -85.4 5
vertex -2.6368588783870788 -84.6196387119355 0
vertex -2.5600000000000005 -85.4 0
endloop
endfacet
facet normal -0.6343932841636484 0.7730104533627347 0
outer loop
vertex -3.9955603934302064 -88.44507608195705 5
vertex -3.7315728752538107 -88.22842712474619 5
vertex -3.7315728752538107 -88.22842712474619 0
endloop
endfacet
facet normal -0.6343932841636484 0.7730104533627347 0
outer loop
vertex -3.9955603934302064 -88.44507608195705 5
vertex -3.7315728752538107 -88.22842712474619 0
vertex -3.9955603934302064 -88.44507608195705 0
endloop
endfacet
facet normal -0.6343932841636484 -0.7730104533627347 0
outer loop
vertex -3.7315728752538107 -82.57157287525382 5
vertex -3.999833684872184 -82.35141691838949 5
vertex -3.999833684872184 -82.35141691838949 0
endloop
endfacet
facet normal -0.6343932841636484 -0.7730104533627347 0
outer loop
vertex -3.7315728752538107 -82.57157287525382 5
vertex -3.999833684872184 -82.35141691838949 0
vertex -3.7315728752538107 -82.57157287525382 0
endloop
endfacet
facet normal -0.9999999996219701 0.00002749654348921382 0
outer loop
vertex -3.999833684872184 -82.35141691838949 5
vertex -3.999807852804032 -81.41195090322017 5
vertex -3.999807852804032 -81.41195090322017 0
endloop
endfacet
facet normal -0.9999999996219701 0.00002749654348921382 0
outer loop
vertex -3.999833684872184 -82.35141691838949 5
vertex -3.999807852804032 -81.41195090322017 0
vertex -3.999833684872184 -82.35141691838949 0
endloop
endfacet
facet normal -0.9951847266721969 -0.09801714032956177 0
outer loop
vertex -3.98078528040323 -88.59509032201613 5.000000000000001
vertex -3.9955603934302064 -88.44507608195705 5
vertex -3.9955603934302064 -88.44507608195705 0
endloop
endfacet
facet normal -0.9951847266721969 -0.09801714032956177 0
outer loop
vertex -3.98078528040323 -88.59509032201613 5.000000000000001
vertex -3.9955603934302064 -88.44507608195705 0
vertex -3.98078528040323 -88.59509032201613 0
endloop
endfacet
facet normal 0 0 1
outer loop
vertex 3 -89.4 5
vertex 3.195090322016129 -89.38078528040323 5.000000000000001
vertex 3.3826834323650905 -89.3238795325113 5
endloop
endfacet
facet normal 0 0 1
outer loop
vertex 3 -89.4 5
vertex 3.3826834323650905 -89.3238795325113 5
vertex 3.555570233019602 -89.23146961230255 5
endloop
endfacet
facet normal 0 0 1
outer loop
vertex 3 -89.4 5
vertex 3.555570233019602 -89.23146961230255 5
vertex 3.7071067811865483 -89.10710678118656 5.000000000000001
endloop
endfacet
facet normal 0 0 1
outer loop
vertex 3 -89.4 5
vertex 3.7071067811865483 -89.10710678118656 5.000000000000001
vertex 3.8314696123025467 -88.95557023301961 5.000000000000001
endloop
endfacet
facet normal 0 0 1
outer loop
vertex 3 -89.4 5
vertex 3.8314696123025467 -88.95557023301961 5.000000000000001
vertex 3.923879532511288 -88.7826834323651 5
endloop
endfacet
facet normal 0 0 1
outer loop
vertex 3 -89.4 5
vertex 3.923879532511288 -88.7826834323651 5
vertex 3.9807852804032304 -88.59509032201613 5
endloop
endfacet
facet normal 0 0 1
outer loop
vertex 3 -89.4 5
vertex 3.9807852804032304 -88.59509032201613 5
vertex 3.995560393430207 -88.44507608195705 5
endloop
endfacet
facet normal 0 0 1
outer loop
vertex 3 -89.4 5
vertex 3.995560393430207 -88.44507608195705 5
vertex 3.7315728752538107 -88.22842712474619 5
endloop
endfacet
facet normal 0 0 1
outer loop
vertex 3 -89.4 5
vertex 3.7315728752538107 -88.22842712474619 5
vertex -3.7315728752538107 -88.22842712474619 5
endloop
endfacet
facet normal 0 0 1
outer loop
vertex 3 -89.4 5
vertex -3.7315728752538107 -88.22842712474619 5
vertex -3.9955603934302064 -88.44507608195705 5
endloop
endfacet
facet normal 0 0 1
outer loop
vertex 3 -89.4 5
vertex -3.9955603934302064 -88.44507608195705 5
vertex -3.98078528040323 -88.59509032201613 5.000000000000001
endloop
endfacet
facet normal 0 0 1
outer loop
vertex 3 -89.4 5
vertex -3.98078528040323 -88.59509032201613 5.000000000000001
vertex -3.9238795325112883 -88.78268343236509 5.000000000000001
endloop
endfacet
facet normal 0 0 1
outer loop
vertex 3 -89.4 5
vertex -3.9238795325112883 -88.78268343236509 5.000000000000001
vertex -3.831469612302545 -88.95557023301961 5
endloop
endfacet
facet normal 0 0 1
outer loop
vertex 3 -89.4 5
vertex -3.831469612302545 -88.95557023301961 5
vertex -3.7071067811865475 -89.10710678118656 5.000000000000001
endloop
endfacet
facet normal 0 0 1
outer loop
vertex 3 -89.4 5
vertex -3.7071067811865475 -89.10710678118656 5.000000000000001
vertex -3.5555702330196035 -89.23146961230255 5.000000000000001
endloop
endfacet
facet normal 0 0 1
outer loop
vertex 3 -89.4 5
vertex -3.5555702330196035 -89.23146961230255 5.000000000000001
vertex -3.3826834323650914 -89.3238795325113 5
endloop
endfacet
facet normal 0 0 1
outer loop
vertex 3 -89.4 5
vertex -3.3826834323650914 -89.3238795325113 5
vertex -3.195090322016129 -89.38078528040323 5
endloop
endfacet
facet normal 0 0 1
outer loop
vertex 3 -89.4 5
vertex -3.195090322016129 -89.38078528040323 5
vertex -2.9999999999999996 -89.4 5
endloop
endfacet
facet normal 0 0 1
outer loop
vertex 3.7315728752538107 -88.22842712474619 5
vertex 3.234121550789819 -87.62228093207841 5
vertex -3.234121550789819 -87.62228093207841 5
endloop
endfacet
facet normal 0 0 1
outer loop
vertex 3.7315728752538107 -88.22842712474619 5
vertex -3.234121550789819 -87.62228093207841 5
vertex -3.7315728752538107 -88.22842712474619 5
endloop
endfacet
facet normal 0 0 1
outer loop
vertex 3.234121550789819 -87.62228093207841 5
vertex 2.8644818699548535 -86.93073372946037 5
vertex -2.8644818699548544 -86.93073372946037 5
endloop
endfacet
facet normal 0 0 1
outer loop
vertex 3.234121550789819 -87.62228093207841 5
vertex -2.8644818699548544 -86.93073372946037 5
vertex -3.234121550789819 -87.62228093207841 5
endloop
endfacet
facet normal 0 0 1
outer loop
vertex 2.8644818699548535 -86.93073372946037 5
vertex 2.6368588783870788 -86.18036128806452 5
vertex -2.6368588783870788 -86.18036128806452 5
endloop
endfacet
facet normal 0 0 1
outer loop
vertex 2.8644818699548535 -86.93073372946037 5
vertex -2.6368588783870788 -86.18036128806452 5
vertex -2.8644818699548544 -86.93073372946037 5
endloop
endfacet
facet normal 0 0 1
outer loop
vertex 2.6368588783870788 -86.18036128806452 5
vertex 2.5600000000000005 -85.4 5
vertex -2.5600000000000005 -85.4 5
endloop
endfacet
facet normal 0 0 1
outer loop
vertex 2.6368588783870788 -86.18036128806452 5
vertex -2.5600000000000005 -85.4 5
vertex -2.6368588783870788 -86.18036128806452 5
endloop
endfacet
facet normal 0 0 1
outer loop
vertex 2.5600000000000005 -85.4 5
vertex 2.636858878387079 -84.6196387119355 5
vertex -2.6368588783870788 -84.6196387119355 5
endloop
endfacet
facet normal 0 0 1
outer loop
vertex 2.5600000000000005 -85.4 5
vertex -2.6368588783870788 -84.6196387119355 5
vertex -2.5600000000000005 -85.4 5
endloop
endfacet
facet normal 0 0 1
outer loop
vertex 2.636858878387079 -84.6196387119355 5
vertex 2.8644818699548527 -83.86926627053965 5
vertex -2.8644818699548544 -83.86926627053964 5
endloop
endfacet
facet normal 0 0 1
outer loop
vertex 2.636858878387079 -84.6196387119355 5
vertex -2.8644818699548544 -83.86926627053964 5
vertex -2.6368588783870788 -84.6196387119355 5
endloop
endfacet
facet normal 0 0 1
outer loop
vertex 2.8644818699548527 -83.86926627053965 5
vertex 3.234121550789818 -83.1777190679216 5
vertex -3.234121550789819 -83.1777190679216 5
endloop
endfacet
facet normal 0 0 1
outer loop
vertex 2.8644818699548527 -83.86926627053965 5
vertex -3.234121550789819 -83.1777190679216 5
vertex -2.8644818699548544 -83.86926627053964 5
endloop
endfacet
facet normal 0 0 1
outer loop
vertex 3.234121550789818 -83.1777190679216 5
vertex 3.7315728752538098 -82.57157287525382 5
vertex -3.7315728752538107 -82.57157287525382 5
endloop
endfacet
facet normal 0 0 1
outer loop
vertex 3.234121550789818 -83.1777190679216 5
vertex -3.7315728752538107 -82.57157287525382 5
vertex -3.234121550789819 -83.1777190679216 5
endloop
endfacet
facet normal 0 0 1
outer loop
vertex 3.7315728752538098 -82.57157287525382 5
vertex 4 -82.3512804270915 5
vertex 4.000000000000001 -81.41000000000001 5.000000000000001
endloop
endfacet
facet normal 0 0 1
outer loop
vertex 3.7315728752538098 -82.57157287525382 5
vertex 4.000000000000001 -81.41000000000001 5.000000000000001
vertex 3.9955557023301966 -81.40168530387697 5.000000000000001
endloop
endfacet
facet normal 0 0 1
outer loop
vertex 3.7315728752538098 -82.57157287525382 5
vertex 3.9955557023301966 -81.40168530387697 5.000000000000001
vertex 3.98617316567635 -81.4007612046749 5.000000000000001
endloop
endfacet
facet normal 0 0 1
outer loop
vertex 3.7315728752538098 -82.57157287525382 5
vertex 3.98617316567635 -81.4007612046749 5.000000000000001
vertex -3.990000000000001 -81.4 5.000000000000001
endloop
endfacet
facet normal 0 0 1
outer loop
vertex 3.7315728752538098 -82.57157287525382 5
vertex -3.990000000000001 -81.4 5.000000000000001
vertex -3.9983146961230265 -81.40444429766981 5.000000000000001
endloop
endfacet
facet normal 0 0 1
outer loop
vertex 3.7315728752538098 -82.57157287525382 5
vertex -3.9983146961230265 -81.40444429766981 5.000000000000001
vertex -3.999807852804032 -81.41195090322017 5
endloop
endfacet
facet normal 0 0 1
outer loop
vertex 3.7315728752538098 -82.57157287525382 5
vertex -3.999807852804032 -81.41195090322017 5
vertex -3.999833684872184 -82.35141691838949 5
endloop
endfacet
facet normal 0 0 1
outer loop
vertex 3.7315728752538098 -82.57157287525382 5
vertex -3.999833684872184 -82.35141691838949 5
vertex -3.7315728752538107 -82.57157287525382 5
endloop
endfacet
endsolid csg.js
